<svg width="390" height="844" viewBox="0 0 390 844" fill="none" xmlns="http://www.w3.org/2000/svg">
<g clip-path="url(#clip0_1165_12957)">
<path d="M224.254 67.6982L214.44 103.86H189.659V67.6982H204.031L201.853 90.1894C201.853 91.4261 203.619 91.6608 203.944 90.4651L210.122 67.6982H224.254Z" fill="#378997"/>
<path d="M227.43 67.6943L221.047 91.2099L217.616 103.856H231.801L235.232 91.2099H239.116L237.892 103.856H253.457V67.6943H227.43ZM238.09 85.9503C237.514 85.9503 236.975 85.8087 236.504 85.5554C235.374 84.9483 234.633 83.7153 234.757 82.3185C234.891 80.7614 236.148 79.48 237.709 79.305C239.729 79.0815 241.439 80.6534 241.439 82.6164C241.439 84.3262 240.148 85.7342 238.483 85.9279C238.356 85.9428 238.225 85.9503 238.09 85.9503Z" fill="#378997"/>
<path d="M168.38 66C157.503 66 148.692 74.7797 148.692 85.6006C148.692 96.4216 157.507 105.201 168.38 105.201C179.254 105.201 188.069 96.4253 188.069 85.6006C188.069 74.776 179.254 66 168.38 66ZM168.38 91.3445C165.196 91.3445 162.614 88.7706 162.614 85.6006C162.614 82.4307 165.192 79.8605 168.38 79.8605C171.568 79.8605 174.146 82.4344 174.146 85.6006C174.146 88.7668 171.568 91.3445 168.38 91.3445Z" fill="#378997"/>
<path d="M147.18 103.57V103.868H132.734V82.006C132.734 80.5011 131.664 79.1564 130.163 78.9404C128.296 78.6759 126.691 80.1063 126.691 81.9166V103.868H112.319V67.6836H147.102V103.514C147.128 103.532 147.154 103.551 147.18 103.57Z" fill="#378997"/>
</g>
<circle cx="152.199" cy="637.712" r="8.71222" fill="#378997"/>
<circle cx="180.949" cy="637.712" r="8.71222" fill="#378997"/>
<circle cx="209.699" cy="637.712" r="8.71222" fill="#378997"/>
<circle cx="238.45" cy="637.712" r="8.71222" fill="#0D0D0C"/>
<path d="M43.5585 160.627H46.2941V173.068H43.5585V160.627ZM48.6973 160.627H51.4156L56.608 168.974H56.6429V160.627H59.2043V173.068H56.4686L51.2936 164.739H51.2587V173.068H48.6973V160.627ZM63.4769 168.939C63.4769 169.357 63.5524 169.711 63.7035 170.002C63.8545 170.292 64.0519 170.53 64.2959 170.716C64.5514 170.89 64.8477 171.024 65.1845 171.117C65.5214 171.198 65.8699 171.239 66.23 171.239C66.4739 171.239 66.7353 171.221 67.0141 171.187C67.2929 171.14 67.5543 171.059 67.7982 170.943C68.0421 170.826 68.2454 170.67 68.4081 170.472C68.5707 170.263 68.652 170.002 68.652 169.688C68.652 169.351 68.5416 169.078 68.3209 168.869C68.1118 168.66 67.833 168.486 67.4846 168.346C67.1361 168.207 66.7411 168.085 66.2997 167.98C65.8583 167.876 65.4111 167.76 64.958 167.632C64.4934 167.516 64.0403 167.376 63.5989 167.214C63.1575 167.04 62.7625 166.819 62.414 166.552C62.0656 166.284 61.781 165.953 61.5602 165.558C61.3512 165.152 61.2466 164.664 61.2466 164.095C61.2466 163.456 61.3802 162.904 61.6474 162.439C61.9262 161.963 62.2863 161.568 62.7277 161.255C63.1691 160.941 63.6686 160.709 64.2262 160.558C64.7838 160.407 65.3414 160.331 65.8989 160.331C66.5494 160.331 67.1709 160.407 67.7634 160.558C68.3674 160.697 68.9017 160.929 69.3664 161.255C69.8311 161.58 70.197 161.998 70.4641 162.509C70.7429 163.009 70.8823 163.619 70.8823 164.339H68.2338C68.2106 163.967 68.1293 163.659 67.9899 163.415C67.8621 163.171 67.6878 162.98 67.4671 162.84C67.2464 162.701 66.9909 162.602 66.7005 162.544C66.4217 162.486 66.1138 162.457 65.777 162.457C65.5563 162.457 65.3355 162.48 65.1148 162.527C64.8941 162.573 64.6908 162.654 64.505 162.771C64.3307 162.887 64.1855 163.032 64.0694 163.206C63.9532 163.38 63.8951 163.601 63.8951 163.868C63.8951 164.112 63.9416 164.31 64.0345 164.461C64.1275 164.612 64.3075 164.751 64.5747 164.879C64.8535 165.007 65.231 165.134 65.7073 165.262C66.1952 165.39 66.8282 165.553 67.6065 165.75C67.8389 165.797 68.1583 165.884 68.5649 166.011C68.9831 166.128 69.3954 166.319 69.802 166.586C70.2086 166.854 70.5571 167.214 70.8475 167.667C71.1495 168.108 71.3005 168.677 71.3005 169.374C71.3005 169.944 71.1902 170.472 70.9694 170.96C70.7487 171.448 70.4177 171.872 69.9763 172.232C69.5465 172.58 69.0063 172.853 68.3558 173.051C67.7169 173.248 66.9734 173.347 66.1255 173.347C65.4401 173.347 64.7722 173.26 64.1216 173.086C63.4827 172.923 62.9135 172.662 62.414 172.302C61.9262 171.942 61.537 171.483 61.2466 170.925C60.9562 170.368 60.8168 169.705 60.8284 168.939H63.4769ZM75.6813 162.927H71.9524V160.627H82.1457V162.927H78.4169V173.068H75.6813V162.927ZM86.3159 166.255H89.3129C89.9402 166.255 90.4106 166.116 90.7243 165.837C91.0379 165.558 91.1947 165.105 91.1947 164.478C91.1947 163.874 91.0379 163.438 90.7243 163.171C90.4106 162.892 89.9402 162.753 89.3129 162.753H86.3159V166.255ZM83.5803 160.627H90.2887C90.8462 160.627 91.3457 160.72 91.7872 160.906C92.2402 161.08 92.6235 161.324 92.9372 161.638C93.2624 161.952 93.5064 162.317 93.669 162.736C93.8433 163.142 93.9304 163.584 93.9304 164.06C93.9304 164.792 93.7736 165.425 93.4599 165.959C93.1579 166.494 92.6584 166.9 91.9614 167.179V167.214C92.2983 167.307 92.5771 167.452 92.7978 167.649C93.0185 167.835 93.1985 168.062 93.3379 168.329C93.4773 168.584 93.5761 168.869 93.6342 169.183C93.7039 169.496 93.7503 169.81 93.7736 170.124C93.7852 170.321 93.7968 170.553 93.8084 170.821C93.82 171.088 93.8374 171.361 93.8607 171.64C93.8955 171.918 93.942 172.186 94.0001 172.441C94.0698 172.685 94.1685 172.894 94.2963 173.068H91.5606C91.4096 172.673 91.3167 172.203 91.2819 171.657C91.247 171.111 91.1947 170.588 91.125 170.089C91.0321 169.438 90.8346 168.962 90.5326 168.66C90.2306 168.358 89.7369 168.207 89.0515 168.207H86.3159V173.068H83.5803V160.627ZM106.714 168.364C106.714 170.048 106.244 171.303 105.303 172.127C104.362 172.941 103.061 173.347 101.4 173.347C99.7155 173.347 98.4087 172.941 97.4794 172.127C96.5617 171.314 96.1028 170.06 96.1028 168.364V160.627H98.8385V168.364C98.8385 168.701 98.8675 169.032 98.9256 169.357C98.9837 169.682 99.1057 169.973 99.2915 170.228C99.4774 170.472 99.7329 170.675 100.058 170.838C100.395 170.989 100.842 171.065 101.4 171.065C102.376 171.065 103.049 170.85 103.421 170.42C103.793 169.978 103.979 169.293 103.979 168.364V160.627H106.714V168.364ZM117.364 164.809C117.318 164.496 117.213 164.211 117.051 163.955C116.888 163.688 116.685 163.456 116.441 163.258C116.197 163.061 115.918 162.91 115.604 162.805C115.302 162.689 114.983 162.631 114.646 162.631C114.03 162.631 113.508 162.753 113.078 162.997C112.648 163.229 112.3 163.549 112.032 163.955C111.765 164.35 111.568 164.803 111.44 165.314C111.324 165.826 111.266 166.354 111.266 166.9C111.266 167.423 111.324 167.934 111.44 168.433C111.568 168.921 111.765 169.363 112.032 169.758C112.3 170.153 112.648 170.472 113.078 170.716C113.508 170.948 114.03 171.065 114.646 171.065C115.483 171.065 116.133 170.809 116.598 170.298C117.074 169.787 117.364 169.113 117.469 168.277H120.117C120.048 169.055 119.868 169.758 119.577 170.385C119.287 171.012 118.903 171.547 118.427 171.988C117.951 172.429 117.393 172.766 116.754 172.999C116.116 173.231 115.413 173.347 114.646 173.347C113.694 173.347 112.834 173.185 112.067 172.859C111.312 172.522 110.673 172.064 110.151 171.483C109.628 170.902 109.227 170.222 108.948 169.444C108.67 168.654 108.53 167.806 108.53 166.9C108.53 165.971 108.67 165.111 108.948 164.321C109.227 163.52 109.628 162.823 110.151 162.23C110.673 161.638 111.312 161.173 112.067 160.836C112.834 160.5 113.694 160.331 114.646 160.331C115.331 160.331 115.976 160.43 116.58 160.627C117.196 160.825 117.742 161.115 118.218 161.499C118.706 161.87 119.107 162.335 119.42 162.892C119.734 163.45 119.932 164.089 120.013 164.809H117.364ZM124.739 162.927H121.01V160.627H131.203V162.927H127.474V173.068H124.739V162.927ZM132.638 160.627H135.373V173.068H132.638V160.627ZM139.972 166.9C139.972 167.423 140.03 167.934 140.146 168.433C140.274 168.921 140.471 169.363 140.739 169.758C141.006 170.153 141.354 170.472 141.784 170.716C142.214 170.948 142.737 171.065 143.352 171.065C143.968 171.065 144.491 170.948 144.92 170.716C145.35 170.472 145.699 170.153 145.966 169.758C146.233 169.363 146.425 168.921 146.541 168.433C146.669 167.934 146.733 167.423 146.733 166.9C146.733 166.354 146.669 165.826 146.541 165.314C146.425 164.803 146.233 164.35 145.966 163.955C145.699 163.549 145.35 163.229 144.92 162.997C144.491 162.753 143.968 162.631 143.352 162.631C142.737 162.631 142.214 162.753 141.784 162.997C141.354 163.229 141.006 163.549 140.739 163.955C140.471 164.35 140.274 164.803 140.146 165.314C140.03 165.826 139.972 166.354 139.972 166.9ZM137.236 166.9C137.236 165.971 137.376 165.111 137.654 164.321C137.933 163.52 138.334 162.823 138.857 162.23C139.379 161.638 140.018 161.173 140.773 160.836C141.54 160.5 142.4 160.331 143.352 160.331C144.316 160.331 145.176 160.5 145.931 160.836C146.686 161.173 147.325 161.638 147.848 162.23C148.37 162.823 148.771 163.52 149.05 164.321C149.329 165.111 149.468 165.971 149.468 166.9C149.468 167.806 149.329 168.654 149.05 169.444C148.771 170.222 148.37 170.902 147.848 171.483C147.325 172.064 146.686 172.522 145.931 172.859C145.176 173.185 144.316 173.347 143.352 173.347C142.4 173.347 141.54 173.185 140.773 172.859C140.018 172.522 139.379 172.064 138.857 171.483C138.334 170.902 137.933 170.222 137.654 169.444C137.376 168.654 137.236 167.806 137.236 166.9ZM151.338 160.627H154.056L159.249 168.974H159.284V160.627H161.845V173.068H159.109L153.934 164.739H153.9V173.068H151.338V160.627ZM166.118 168.939C166.118 169.357 166.193 169.711 166.344 170.002C166.495 170.292 166.693 170.53 166.937 170.716C167.192 170.89 167.489 171.024 167.825 171.117C168.162 171.198 168.511 171.239 168.871 171.239C169.115 171.239 169.376 171.221 169.655 171.187C169.934 171.14 170.195 171.059 170.439 170.943C170.683 170.826 170.886 170.67 171.049 170.472C171.212 170.263 171.293 170.002 171.293 169.688C171.293 169.351 171.183 169.078 170.962 168.869C170.753 168.66 170.474 168.486 170.125 168.346C169.777 168.207 169.382 168.085 168.941 167.98C168.499 167.876 168.052 167.76 167.599 167.632C167.134 167.516 166.681 167.376 166.24 167.214C165.798 167.04 165.403 166.819 165.055 166.552C164.706 166.284 164.422 165.953 164.201 165.558C163.992 165.152 163.887 164.664 163.887 164.095C163.887 163.456 164.021 162.904 164.288 162.439C164.567 161.963 164.927 161.568 165.369 161.255C165.81 160.941 166.309 160.709 166.867 160.558C167.425 160.407 167.982 160.331 168.54 160.331C169.19 160.331 169.812 160.407 170.404 160.558C171.008 160.697 171.543 160.929 172.007 161.255C172.472 161.58 172.838 161.998 173.105 162.509C173.384 163.009 173.523 163.619 173.523 164.339H170.875C170.851 163.967 170.77 163.659 170.631 163.415C170.503 163.171 170.329 162.98 170.108 162.84C169.887 162.701 169.632 162.602 169.341 162.544C169.063 162.486 168.755 162.457 168.418 162.457C168.197 162.457 167.976 162.48 167.756 162.527C167.535 162.573 167.332 162.654 167.146 162.771C166.972 162.887 166.826 163.032 166.71 163.206C166.594 163.38 166.536 163.601 166.536 163.868C166.536 164.112 166.582 164.31 166.675 164.461C166.768 164.612 166.948 164.751 167.216 164.879C167.494 165.007 167.872 165.134 168.348 165.262C168.836 165.39 169.469 165.553 170.247 165.75C170.48 165.797 170.799 165.884 171.206 166.011C171.624 166.128 172.036 166.319 172.443 166.586C172.849 166.854 173.198 167.214 173.488 167.667C173.79 168.108 173.941 168.677 173.941 169.374C173.941 169.944 173.831 170.472 173.61 170.96C173.39 171.448 173.059 171.872 172.617 172.232C172.187 172.58 171.647 172.853 170.997 173.051C170.358 173.248 169.614 173.347 168.766 173.347C168.081 173.347 167.413 173.26 166.763 173.086C166.124 172.923 165.554 172.662 165.055 172.302C164.567 171.942 164.178 171.483 163.887 170.925C163.597 170.368 163.458 169.705 163.469 168.939H166.118Z" fill="#378997"/>
<path d="M51.7802 196.404V203.781H49.38V196.404L42.4067 185.742H45.2617L50.6685 194.332L55.949 185.742H58.6777L51.7802 196.404ZM59.11 197.263C59.11 198.054 59.211 198.762 59.4131 199.385C59.6321 199.991 59.9269 200.505 60.2974 200.926C60.668 201.331 61.0975 201.642 61.586 201.861C62.0913 202.08 62.6218 202.19 63.1777 202.19C63.7335 202.19 64.2557 202.08 64.7441 201.861C65.2495 201.642 65.6874 201.331 66.0579 200.926C66.4285 200.505 66.7148 199.991 66.917 199.385C67.1359 198.762 67.2454 198.054 67.2454 197.263C67.2454 196.471 67.1359 195.772 66.917 195.166C66.7148 194.543 66.4285 194.02 66.0579 193.599C65.6874 193.178 65.2495 192.858 64.7441 192.639C64.2557 192.42 63.7335 192.311 63.1777 192.311C62.6218 192.311 62.0913 192.42 61.586 192.639C61.0975 192.858 60.668 193.178 60.2974 193.599C59.9269 194.02 59.6321 194.543 59.4131 195.166C59.211 195.772 59.11 196.471 59.11 197.263ZM56.8361 197.263C56.8361 196.303 56.9708 195.41 57.2403 194.585C57.5098 193.742 57.9141 193.018 58.4531 192.412C58.992 191.789 59.6574 191.3 60.449 190.946C61.2407 190.593 62.1502 190.416 63.1777 190.416C64.222 190.416 65.1315 190.593 65.9064 190.946C66.698 191.3 67.3633 191.789 67.9023 192.412C68.4413 193.018 68.8456 193.742 69.1151 194.585C69.3846 195.41 69.5193 196.303 69.5193 197.263C69.5193 198.223 69.3846 199.116 69.1151 199.941C68.8456 200.766 68.4413 201.491 67.9023 202.114C67.3633 202.72 66.698 203.2 65.9064 203.554C65.1315 203.891 64.222 204.059 63.1777 204.059C62.1502 204.059 61.2407 203.891 60.449 203.554C59.6574 203.2 58.992 202.72 58.4531 202.114C57.9141 201.491 57.5098 200.766 57.2403 199.941C56.9708 199.116 56.8361 198.223 56.8361 197.263ZM82.865 203.781H80.8438V201.709H80.7932C80.3384 202.518 79.7573 203.116 79.0499 203.503C78.3425 203.874 77.5087 204.059 76.5486 204.059C75.6896 204.059 74.9738 203.95 74.4011 203.731C73.8284 203.495 73.3652 203.166 73.0115 202.745C72.6578 202.324 72.4051 201.827 72.2535 201.255C72.1188 200.665 72.0514 200.017 72.0514 199.309V190.719H74.1989V199.562C74.1989 200.37 74.4348 201.01 74.9064 201.482C75.378 201.954 76.0265 202.19 76.8518 202.19C77.5087 202.19 78.073 202.088 78.5446 201.886C79.0331 201.684 79.4373 201.398 79.7573 201.027C80.0774 200.657 80.3132 200.227 80.4648 199.739C80.6332 199.233 80.7174 198.686 80.7174 198.097V190.719H82.865V203.781ZM93.1224 185.742H95.2699V192.639H95.3205C95.4889 192.235 95.7247 191.898 96.0279 191.629C96.3311 191.342 96.668 191.115 97.0385 190.946C97.4259 190.761 97.8217 190.626 98.226 190.542C98.6471 190.458 99.0513 190.416 99.4387 190.416C100.298 190.416 101.014 190.534 101.586 190.77C102.159 191.005 102.622 191.334 102.976 191.755C103.33 192.176 103.574 192.681 103.709 193.271C103.86 193.844 103.936 194.484 103.936 195.191V203.781H101.788V194.938C101.788 194.13 101.553 193.49 101.081 193.018C100.609 192.547 99.9609 192.311 99.1355 192.311C98.4786 192.311 97.906 192.412 97.4175 192.614C96.9459 192.816 96.55 193.102 96.23 193.473C95.91 193.844 95.6658 194.281 95.4973 194.787C95.3457 195.275 95.2699 195.814 95.2699 196.404V203.781H93.1224V185.742ZM118.733 203.731C118.362 203.95 117.849 204.059 117.192 204.059C116.636 204.059 116.19 203.908 115.853 203.604C115.533 203.284 115.373 202.771 115.373 202.063C114.783 202.771 114.093 203.284 113.301 203.604C112.526 203.908 111.684 204.059 110.774 204.059C110.185 204.059 109.621 203.992 109.082 203.857C108.559 203.722 108.105 203.512 107.717 203.225C107.33 202.939 107.018 202.569 106.782 202.114C106.564 201.642 106.454 201.078 106.454 200.421C106.454 199.68 106.58 199.073 106.833 198.602C107.086 198.13 107.414 197.751 107.818 197.465C108.239 197.162 108.711 196.934 109.233 196.783C109.772 196.631 110.32 196.505 110.875 196.404C111.465 196.286 112.021 196.202 112.543 196.151C113.082 196.084 113.554 195.999 113.958 195.898C114.362 195.781 114.682 195.621 114.918 195.418C115.154 195.199 115.272 194.888 115.272 194.484C115.272 194.012 115.179 193.633 114.994 193.347C114.825 193.06 114.598 192.841 114.312 192.69C114.042 192.538 113.73 192.437 113.377 192.387C113.04 192.336 112.703 192.311 112.366 192.311C111.457 192.311 110.699 192.488 110.092 192.841C109.486 193.178 109.157 193.827 109.107 194.787H106.959C106.993 193.978 107.161 193.296 107.465 192.74C107.768 192.184 108.172 191.738 108.677 191.401C109.183 191.047 109.755 190.795 110.395 190.643C111.052 190.492 111.751 190.416 112.492 190.416C113.082 190.416 113.663 190.458 114.236 190.542C114.825 190.626 115.356 190.803 115.828 191.073C116.299 191.325 116.678 191.688 116.964 192.159C117.251 192.631 117.394 193.246 117.394 194.004V200.724C117.394 201.229 117.419 201.6 117.47 201.836C117.537 202.072 117.739 202.19 118.076 202.19C118.261 202.19 118.48 202.147 118.733 202.063V203.731ZM115.246 197.035C114.977 197.238 114.623 197.389 114.185 197.49C113.747 197.574 113.284 197.65 112.796 197.718C112.324 197.768 111.844 197.835 111.356 197.92C110.867 197.987 110.429 198.105 110.042 198.273C109.654 198.442 109.334 198.686 109.082 199.006C108.846 199.309 108.728 199.73 108.728 200.269C108.728 200.623 108.795 200.926 108.93 201.179C109.082 201.415 109.267 201.608 109.486 201.76C109.722 201.912 109.991 202.021 110.294 202.088C110.598 202.156 110.918 202.19 111.254 202.19C111.962 202.19 112.568 202.097 113.074 201.912C113.579 201.709 113.992 201.465 114.312 201.179C114.632 200.876 114.867 200.556 115.019 200.219C115.171 199.865 115.246 199.537 115.246 199.233V197.035ZM126.619 203.781H124.319L119.468 190.719H121.869L125.532 201.608H125.583L129.145 190.719H131.394L126.619 203.781ZM142.435 195.999C142.401 195.494 142.283 195.014 142.081 194.559C141.896 194.105 141.635 193.717 141.298 193.397C140.978 193.06 140.59 192.799 140.136 192.614C139.698 192.412 139.209 192.311 138.67 192.311C138.114 192.311 137.609 192.412 137.154 192.614C136.716 192.799 136.337 193.06 136.017 193.397C135.697 193.734 135.445 194.13 135.259 194.585C135.074 195.023 134.965 195.494 134.931 195.999H142.435ZM144.507 199.638C144.22 201.103 143.589 202.206 142.612 202.947C141.635 203.689 140.405 204.059 138.923 204.059C137.879 204.059 136.969 203.891 136.194 203.554C135.436 203.217 134.796 202.745 134.274 202.139C133.752 201.533 133.356 200.808 133.087 199.966C132.834 199.124 132.691 198.206 132.657 197.212C132.657 196.218 132.809 195.309 133.112 194.484C133.415 193.658 133.836 192.942 134.375 192.336C134.931 191.73 135.579 191.258 136.321 190.921C137.079 190.584 137.904 190.416 138.797 190.416C139.959 190.416 140.919 190.66 141.677 191.149C142.452 191.62 143.066 192.227 143.521 192.968C143.993 193.709 144.313 194.517 144.481 195.393C144.667 196.269 144.742 197.103 144.709 197.894H134.931C134.914 198.467 134.981 199.015 135.133 199.537C135.285 200.042 135.529 200.497 135.866 200.901C136.203 201.288 136.632 201.6 137.154 201.836C137.676 202.072 138.291 202.19 138.999 202.19C139.908 202.19 140.649 201.979 141.222 201.558C141.812 201.137 142.199 200.497 142.384 199.638H144.507ZM158.262 190.719H160.889V193.119H158.262V199.587C158.262 200.194 158.363 200.598 158.565 200.8C158.767 201.002 159.171 201.103 159.778 201.103C159.98 201.103 160.174 201.095 160.359 201.078C160.544 201.061 160.721 201.036 160.889 201.002V203.781C160.586 203.832 160.249 203.865 159.879 203.882C159.508 203.899 159.146 203.908 158.792 203.908C158.237 203.908 157.706 203.865 157.201 203.781C156.712 203.714 156.274 203.571 155.887 203.352C155.516 203.133 155.222 202.821 155.003 202.417C154.784 202.013 154.674 201.482 154.674 200.825V193.119H152.501V190.719H154.674V186.803H158.262V190.719ZM177.528 203.781H173.84L171.515 195.014H171.465L169.241 203.781H165.527L161.384 190.719H165.173L167.574 199.587H167.624L169.797 190.719H173.284L175.507 199.562H175.558L177.958 190.719H181.647L177.528 203.781ZM186.357 197.263C186.357 197.785 186.408 198.299 186.509 198.804C186.61 199.292 186.778 199.739 187.014 200.143C187.267 200.53 187.595 200.842 188 201.078C188.404 201.314 188.909 201.432 189.516 201.432C190.122 201.432 190.627 201.314 191.031 201.078C191.453 200.842 191.781 200.53 192.017 200.143C192.269 199.739 192.446 199.292 192.547 198.804C192.648 198.299 192.699 197.785 192.699 197.263C192.699 196.741 192.648 196.227 192.547 195.722C192.446 195.216 192.269 194.77 192.017 194.383C191.781 193.995 191.453 193.683 191.031 193.448C190.627 193.195 190.122 193.069 189.516 193.069C188.909 193.069 188.404 193.195 188 193.448C187.595 193.683 187.267 193.995 187.014 194.383C186.778 194.77 186.61 195.216 186.509 195.722C186.408 196.227 186.357 196.741 186.357 197.263ZM182.77 197.263C182.77 196.218 182.93 195.275 183.25 194.433C183.57 193.574 184.025 192.85 184.614 192.26C185.204 191.654 185.911 191.191 186.736 190.871C187.562 190.534 188.488 190.365 189.516 190.365C190.543 190.365 191.469 190.534 192.295 190.871C193.137 191.191 193.853 191.654 194.442 192.26C195.032 192.85 195.487 193.574 195.807 194.433C196.127 195.275 196.287 196.218 196.287 197.263C196.287 198.307 196.127 199.25 195.807 200.092C195.487 200.935 195.032 201.659 194.442 202.265C193.853 202.855 193.137 203.31 192.295 203.63C191.469 203.95 190.543 204.11 189.516 204.11C188.488 204.11 187.562 203.95 186.736 203.63C185.911 203.31 185.204 202.855 184.614 202.265C184.025 201.659 183.57 200.935 183.25 200.092C182.93 199.25 182.77 198.307 182.77 197.263ZM205.752 190.719H209.138V192.488H209.188C209.66 191.814 210.224 191.292 210.881 190.921C211.555 190.551 212.321 190.365 213.18 190.365C214.006 190.365 214.755 190.525 215.429 190.845C216.12 191.165 216.642 191.73 216.995 192.538C217.383 191.965 217.905 191.46 218.562 191.022C219.236 190.584 220.027 190.365 220.937 190.365C221.627 190.365 222.268 190.45 222.857 190.618C223.447 190.786 223.952 191.056 224.373 191.426C224.794 191.797 225.123 192.285 225.358 192.892C225.594 193.481 225.712 194.197 225.712 195.039V203.781H222.124V196.378C222.124 195.941 222.107 195.528 222.074 195.14C222.04 194.753 221.947 194.416 221.796 194.13C221.644 193.844 221.417 193.616 221.114 193.448C220.827 193.279 220.432 193.195 219.926 193.195C219.421 193.195 219.008 193.296 218.688 193.498C218.385 193.683 218.141 193.936 217.956 194.256C217.787 194.559 217.669 194.913 217.602 195.317C217.551 195.705 217.526 196.101 217.526 196.505V203.781H213.938V196.454C213.938 196.067 213.93 195.688 213.913 195.317C213.896 194.93 213.82 194.576 213.686 194.256C213.568 193.936 213.357 193.683 213.054 193.498C212.768 193.296 212.338 193.195 211.766 193.195C211.597 193.195 211.37 193.237 211.083 193.321C210.814 193.389 210.544 193.532 210.275 193.751C210.022 193.953 209.803 194.256 209.618 194.66C209.433 195.048 209.34 195.562 209.34 196.202V203.781H205.752V190.719ZM232.237 188.698H228.649V185.742H232.237V188.698ZM228.649 190.719H232.237V203.781H228.649V190.719ZM235.062 190.719H238.473V192.538H238.548C239.003 191.78 239.593 191.233 240.317 190.896C241.041 190.542 241.782 190.365 242.54 190.365C243.5 190.365 244.284 190.5 244.89 190.77C245.513 191.022 246.002 191.384 246.355 191.856C246.709 192.311 246.953 192.875 247.088 193.549C247.24 194.206 247.316 194.938 247.316 195.747V203.781H243.728V196.404C243.728 195.326 243.559 194.526 243.223 194.004C242.886 193.465 242.288 193.195 241.429 193.195C240.452 193.195 239.744 193.49 239.306 194.079C238.868 194.652 238.65 195.604 238.65 196.934V203.781H235.062V190.719ZM262.292 203.781H258.881V201.962H258.806C258.351 202.72 257.761 203.268 257.037 203.604C256.313 203.941 255.572 204.11 254.814 204.11C253.854 204.11 253.062 203.983 252.439 203.731C251.832 203.478 251.352 203.124 250.999 202.67C250.645 202.198 250.392 201.634 250.241 200.977C250.106 200.303 250.039 199.562 250.039 198.753V190.719H253.626V198.097C253.626 199.175 253.795 199.983 254.132 200.522C254.468 201.044 255.066 201.305 255.925 201.305C256.902 201.305 257.61 201.019 258.048 200.446C258.486 199.857 258.705 198.897 258.705 197.566V190.719H262.292V203.781ZM269.563 190.719H272.191V193.119H269.563V199.587C269.563 200.194 269.664 200.598 269.866 200.8C270.068 201.002 270.473 201.103 271.079 201.103C271.281 201.103 271.475 201.095 271.66 201.078C271.845 201.061 272.022 201.036 272.191 201.002V203.781C271.887 203.832 271.551 203.865 271.18 203.882C270.809 203.899 270.447 203.908 270.094 203.908C269.538 203.908 269.007 203.865 268.502 203.781C268.013 203.714 267.575 203.571 267.188 203.352C266.817 203.133 266.523 202.821 266.304 202.417C266.085 202.013 265.975 201.482 265.975 200.825V193.119H263.802V190.719H265.975V186.803H269.563V190.719ZM282.69 195.848C282.522 194.938 282.218 194.248 281.78 193.776C281.359 193.305 280.711 193.069 279.835 193.069C279.262 193.069 278.782 193.17 278.395 193.372C278.024 193.557 277.721 193.793 277.485 194.079C277.266 194.366 277.106 194.669 277.005 194.989C276.921 195.309 276.87 195.595 276.854 195.848H282.69ZM276.854 198.122C276.904 199.284 277.199 200.126 277.738 200.648C278.277 201.17 279.052 201.432 280.062 201.432C280.787 201.432 281.41 201.255 281.932 200.901C282.454 200.53 282.774 200.143 282.892 199.739H286.05C285.545 201.305 284.77 202.425 283.726 203.099C282.682 203.773 281.418 204.11 279.936 204.11C278.909 204.11 277.982 203.95 277.157 203.63C276.331 203.293 275.632 202.821 275.06 202.215C274.487 201.608 274.041 200.884 273.721 200.042C273.418 199.2 273.266 198.273 273.266 197.263C273.266 196.286 273.426 195.376 273.746 194.534C274.066 193.692 274.521 192.968 275.11 192.361C275.7 191.738 276.399 191.25 277.207 190.896C278.033 190.542 278.942 190.365 279.936 190.365C281.048 190.365 282.016 190.584 282.842 191.022C283.667 191.443 284.341 192.016 284.863 192.74C285.402 193.465 285.789 194.29 286.025 195.216C286.261 196.143 286.345 197.111 286.278 198.122H276.854ZM291.185 199.537C291.185 199.924 291.26 200.261 291.412 200.547C291.58 200.817 291.791 201.044 292.044 201.229C292.296 201.398 292.583 201.524 292.903 201.608C293.24 201.693 293.585 201.735 293.939 201.735C294.191 201.735 294.452 201.709 294.722 201.659C295.008 201.592 295.261 201.499 295.48 201.381C295.716 201.246 295.909 201.078 296.061 200.876C296.212 200.657 296.288 200.387 296.288 200.067C296.288 199.528 295.926 199.124 295.202 198.854C294.494 198.585 293.501 198.315 292.221 198.046C291.698 197.928 291.185 197.793 290.679 197.642C290.191 197.473 289.753 197.263 289.366 197.01C288.978 196.741 288.667 196.412 288.431 196.025C288.195 195.621 288.077 195.132 288.077 194.559C288.077 193.717 288.237 193.027 288.557 192.488C288.894 191.949 289.332 191.528 289.871 191.224C290.41 190.904 291.016 190.685 291.69 190.567C292.364 190.433 293.054 190.365 293.762 190.365C294.469 190.365 295.151 190.433 295.808 190.567C296.482 190.702 297.08 190.93 297.602 191.25C298.124 191.57 298.554 191.999 298.891 192.538C299.244 193.06 299.455 193.726 299.522 194.534H296.111C296.061 193.844 295.8 193.38 295.328 193.144C294.857 192.892 294.301 192.766 293.661 192.766C293.459 192.766 293.24 192.782 293.004 192.816C292.768 192.833 292.549 192.883 292.347 192.968C292.162 193.052 292.002 193.178 291.867 193.347C291.732 193.498 291.665 193.709 291.665 193.978C291.665 194.298 291.783 194.559 292.018 194.761C292.254 194.964 292.557 195.132 292.928 195.267C293.315 195.385 293.753 195.494 294.242 195.595C294.73 195.696 295.227 195.806 295.732 195.924C296.255 196.042 296.76 196.185 297.248 196.353C297.754 196.522 298.2 196.749 298.587 197.035C298.975 197.305 299.286 197.65 299.522 198.071C299.758 198.476 299.876 198.981 299.876 199.587C299.876 200.446 299.699 201.17 299.345 201.76C299.009 202.333 298.562 202.796 298.006 203.15C297.45 203.503 296.81 203.748 296.086 203.882C295.379 204.034 294.654 204.11 293.913 204.11C293.155 204.11 292.414 204.034 291.69 203.882C290.966 203.731 290.317 203.478 289.745 203.124C289.189 202.771 288.726 202.307 288.355 201.735C288.001 201.145 287.808 200.413 287.774 199.537H291.185ZM302.708 200.977H305.513V203.529C305.513 204.489 305.294 205.314 304.856 206.005C304.418 206.695 303.711 207.184 302.734 207.47V206.207C303.02 206.106 303.256 205.954 303.441 205.752C303.643 205.567 303.803 205.356 303.921 205.12C304.039 204.901 304.115 204.674 304.149 204.438C304.199 204.202 304.216 203.983 304.199 203.781H302.708V200.977ZM49.1021 230.525C48.8494 231.165 48.5968 231.704 48.3441 232.142C48.1083 232.579 47.8388 232.933 47.5356 233.203C47.2493 233.489 46.9208 233.691 46.5503 233.809C46.1965 233.944 45.7839 234.011 45.3123 234.011C45.0596 234.011 44.8069 233.994 44.5543 233.961C44.3016 233.927 44.0574 233.868 43.8216 233.784V231.813C44.0069 231.897 44.2174 231.965 44.4532 232.015C44.7059 232.083 44.9164 232.116 45.0849 232.116C45.5228 232.116 45.8849 232.007 46.1713 231.788C46.4745 231.586 46.7019 231.291 46.8534 230.904L47.7377 228.705L42.5583 215.719H44.9838L48.7989 226.406H48.8494L52.5129 215.719H54.7868L49.1021 230.525ZM58.1724 222.263C58.1724 223.054 58.2734 223.762 58.4756 224.385C58.6945 224.991 58.9893 225.505 59.3598 225.926C59.7304 226.331 60.1599 226.642 60.6484 226.861C61.1537 227.08 61.6843 227.19 62.2401 227.19C62.7959 227.19 63.3181 227.08 63.8066 226.861C64.3119 226.642 64.7498 226.331 65.1204 225.926C65.4909 225.505 65.7773 224.991 65.9794 224.385C66.1984 223.762 66.3078 223.054 66.3078 222.263C66.3078 221.471 66.1984 220.772 65.9794 220.166C65.7773 219.543 65.4909 219.02 65.1204 218.599C64.7498 218.178 64.3119 217.858 63.8066 217.639C63.3181 217.42 62.7959 217.311 62.2401 217.311C61.6843 217.311 61.1537 217.42 60.6484 217.639C60.1599 217.858 59.7304 218.178 59.3598 218.599C58.9893 219.02 58.6945 219.543 58.4756 220.166C58.2734 220.772 58.1724 221.471 58.1724 222.263ZM55.8985 222.263C55.8985 221.303 56.0332 220.41 56.3027 219.585C56.5722 218.742 56.9765 218.018 57.5155 217.412C58.0545 216.789 58.7198 216.3 59.5114 215.946C60.3031 215.593 61.2126 215.416 62.2401 215.416C63.2844 215.416 64.194 215.593 64.9688 215.946C65.7604 216.3 66.4257 216.789 66.9647 217.412C67.5037 218.018 67.908 218.742 68.1775 219.585C68.447 220.41 68.5817 221.303 68.5817 222.263C68.5817 223.223 68.447 224.116 68.1775 224.941C67.908 225.766 67.5037 226.491 66.9647 227.114C66.4257 227.72 65.7604 228.2 64.9688 228.554C64.194 228.891 63.2844 229.059 62.2401 229.059C61.2126 229.059 60.3031 228.891 59.5114 228.554C58.7198 228.2 58.0545 227.72 57.5155 227.114C56.9765 226.491 56.5722 225.766 56.3027 224.941C56.0332 224.116 55.8985 223.223 55.8985 222.263ZM81.9274 228.781H79.9062V226.709H79.8556C79.4009 227.518 78.8198 228.116 78.1123 228.503C77.4049 228.874 76.5711 229.059 75.611 229.059C74.752 229.059 74.0362 228.95 73.4635 228.731C72.8908 228.495 72.4276 228.166 72.0739 227.745C71.7202 227.324 71.4675 226.827 71.3159 226.255C71.1812 225.665 71.1138 225.017 71.1138 224.309V215.719H73.2614V224.562C73.2614 225.37 73.4972 226.01 73.9688 226.482C74.4404 226.954 75.0889 227.19 75.9142 227.19C76.5711 227.19 77.1354 227.088 77.607 226.886C78.0955 226.684 78.4997 226.398 78.8198 226.027C79.1398 225.657 79.3756 225.227 79.5272 224.739C79.6956 224.233 79.7798 223.686 79.7798 223.097V215.719H81.9274V228.781ZM92.1848 215.719H94.206V217.639H94.2565C95.2335 216.157 96.6399 215.416 98.4759 215.416C99.2844 215.416 100.017 215.584 100.674 215.921C101.331 216.258 101.794 216.831 102.064 217.639C102.502 216.932 103.074 216.384 103.782 215.997C104.506 215.61 105.298 215.416 106.157 215.416C106.813 215.416 107.403 215.492 107.925 215.643C108.464 215.778 108.919 215.997 109.289 216.3C109.677 216.603 109.972 216.999 110.174 217.488C110.393 217.959 110.502 218.532 110.502 219.206V228.781H108.355V220.216C108.355 219.812 108.321 219.433 108.254 219.079C108.186 218.726 108.06 218.422 107.875 218.17C107.689 217.9 107.428 217.69 107.091 217.538C106.771 217.387 106.35 217.311 105.828 217.311C104.767 217.311 103.933 217.614 103.327 218.22C102.72 218.827 102.417 219.635 102.417 220.646V228.781H100.27V220.216C100.27 219.795 100.228 219.408 100.143 219.054C100.076 218.7 99.9497 218.397 99.7644 218.144C99.5791 217.875 99.3265 217.673 99.0065 217.538C98.7033 217.387 98.3074 217.311 97.819 217.311C97.1958 217.311 96.6568 217.437 96.202 217.69C95.7641 217.942 95.4019 218.246 95.1156 218.599C94.8461 218.953 94.644 219.324 94.5092 219.711C94.3913 220.082 94.3323 220.393 94.3323 220.646V228.781H92.1848V215.719ZM124.538 228.781H122.517V226.709H122.466C122.012 227.518 121.431 228.116 120.723 228.503C120.016 228.874 119.182 229.059 118.222 229.059C117.363 229.059 116.647 228.95 116.074 228.731C115.502 228.495 115.038 228.166 114.685 227.745C114.331 227.324 114.078 226.827 113.927 226.255C113.792 225.665 113.725 225.017 113.725 224.309V215.719H115.872V224.562C115.872 225.37 116.108 226.01 116.58 226.482C117.051 226.954 117.7 227.19 118.525 227.19C119.182 227.19 119.746 227.088 120.218 226.886C120.706 226.684 121.11 226.398 121.431 226.027C121.751 225.657 121.986 225.227 122.138 224.739C122.306 224.233 122.391 223.686 122.391 223.097V215.719H124.538V228.781ZM129.077 224.663C129.094 225.135 129.204 225.539 129.406 225.876C129.608 226.196 129.869 226.457 130.189 226.659C130.526 226.844 130.897 226.979 131.301 227.063C131.722 227.147 132.151 227.19 132.589 227.19C132.926 227.19 133.28 227.164 133.651 227.114C134.021 227.063 134.358 226.971 134.661 226.836C134.981 226.701 135.242 226.507 135.444 226.255C135.646 225.985 135.748 225.648 135.748 225.244C135.748 224.688 135.537 224.267 135.116 223.981C134.695 223.694 134.164 223.467 133.524 223.299C132.901 223.113 132.219 222.953 131.478 222.819C130.737 222.667 130.046 222.465 129.406 222.212C128.783 221.943 128.261 221.572 127.839 221.101C127.418 220.629 127.208 219.972 127.208 219.13C127.208 218.473 127.351 217.909 127.637 217.437C127.941 216.965 128.319 216.586 128.774 216.3C129.246 215.997 129.768 215.778 130.341 215.643C130.93 215.492 131.511 215.416 132.084 215.416C132.825 215.416 133.507 215.483 134.131 215.618C134.754 215.736 135.301 215.955 135.773 216.275C136.261 216.578 136.649 216.999 136.935 217.538C137.221 218.06 137.39 218.717 137.44 219.509H135.293C135.259 219.088 135.15 218.742 134.964 218.473C134.779 218.187 134.543 217.959 134.257 217.791C133.971 217.622 133.651 217.504 133.297 217.437C132.96 217.353 132.615 217.311 132.261 217.311C131.941 217.311 131.612 217.336 131.276 217.387C130.956 217.437 130.661 217.53 130.391 217.664C130.122 217.782 129.903 217.951 129.734 218.17C129.566 218.372 129.482 218.641 129.482 218.978C129.482 219.349 129.608 219.66 129.861 219.913C130.13 220.149 130.467 220.351 130.871 220.519C131.276 220.671 131.73 220.806 132.236 220.924C132.741 221.025 133.246 221.134 133.752 221.252C134.291 221.37 134.813 221.513 135.318 221.682C135.84 221.85 136.295 222.077 136.682 222.364C137.087 222.633 137.407 222.979 137.642 223.4C137.895 223.821 138.021 224.343 138.021 224.966C138.021 225.758 137.853 226.415 137.516 226.937C137.196 227.459 136.767 227.88 136.228 228.2C135.705 228.52 135.107 228.739 134.434 228.857C133.777 228.992 133.12 229.059 132.463 229.059C131.739 229.059 131.048 228.983 130.391 228.832C129.734 228.68 129.153 228.436 128.648 228.099C128.143 227.745 127.738 227.291 127.435 226.735C127.132 226.162 126.964 225.471 126.93 224.663H129.077ZM143.378 215.719H145.98V217.614H143.378V225.724C143.378 225.977 143.395 226.179 143.428 226.331C143.479 226.482 143.563 226.6 143.681 226.684C143.799 226.768 143.959 226.827 144.161 226.861C144.38 226.878 144.658 226.886 144.995 226.886H145.98V228.781H144.338C143.782 228.781 143.302 228.748 142.898 228.68C142.51 228.596 142.19 228.453 141.938 228.251C141.702 228.049 141.525 227.762 141.407 227.392C141.289 227.021 141.23 226.533 141.23 225.926V217.614H139.007V215.719H141.23V211.803H143.378V215.719ZM164.266 219.913C164.097 219.088 163.744 218.448 163.205 217.993C162.666 217.538 161.941 217.311 161.032 217.311C160.257 217.311 159.609 217.454 159.086 217.74C158.564 218.027 158.143 218.406 157.823 218.877C157.52 219.349 157.301 219.896 157.166 220.519C157.032 221.126 156.964 221.757 156.964 222.414C156.964 223.021 157.032 223.61 157.166 224.183C157.318 224.756 157.545 225.269 157.848 225.724C158.152 226.162 158.547 226.516 159.036 226.785C159.524 227.055 160.106 227.19 160.779 227.19C161.84 227.19 162.666 226.912 163.255 226.356C163.862 225.8 164.232 225.017 164.367 224.006H166.565C166.329 225.623 165.723 226.869 164.746 227.745C163.786 228.621 162.472 229.059 160.805 229.059C159.811 229.059 158.926 228.899 158.152 228.579C157.394 228.259 156.754 227.804 156.231 227.215C155.726 226.625 155.339 225.926 155.069 225.118C154.817 224.292 154.69 223.391 154.69 222.414C154.69 221.437 154.817 220.528 155.069 219.686C155.322 218.827 155.701 218.086 156.206 217.462C156.728 216.822 157.377 216.325 158.152 215.972C158.926 215.601 159.828 215.416 160.855 215.416C161.596 215.416 162.287 215.508 162.927 215.694C163.584 215.862 164.156 216.132 164.645 216.502C165.15 216.873 165.563 217.344 165.883 217.917C166.203 218.473 166.405 219.138 166.489 219.913H164.266ZM170.534 222.263C170.534 223.054 170.636 223.762 170.838 224.385C171.057 224.991 171.351 225.505 171.722 225.926C172.093 226.331 172.522 226.642 173.011 226.861C173.516 227.08 174.046 227.19 174.602 227.19C175.158 227.19 175.68 227.08 176.169 226.861C176.674 226.642 177.112 226.331 177.482 225.926C177.853 225.505 178.139 224.991 178.342 224.385C178.56 223.762 178.67 223.054 178.67 222.263C178.67 221.471 178.56 220.772 178.342 220.166C178.139 219.543 177.853 219.02 177.482 218.599C177.112 218.178 176.674 217.858 176.169 217.639C175.68 217.42 175.158 217.311 174.602 217.311C174.046 217.311 173.516 217.42 173.011 217.639C172.522 217.858 172.093 218.178 171.722 218.599C171.351 219.02 171.057 219.543 170.838 220.166C170.636 220.772 170.534 221.471 170.534 222.263ZM168.261 222.263C168.261 221.303 168.395 220.41 168.665 219.585C168.934 218.742 169.339 218.018 169.878 217.412C170.417 216.789 171.082 216.3 171.874 215.946C172.665 215.593 173.575 215.416 174.602 215.416C175.647 215.416 176.556 215.593 177.331 215.946C178.123 216.3 178.788 216.789 179.327 217.412C179.866 218.018 180.27 218.742 180.54 219.585C180.809 220.41 180.944 221.303 180.944 222.263C180.944 223.223 180.809 224.116 180.54 224.941C180.27 225.766 179.866 226.491 179.327 227.114C178.788 227.72 178.123 228.2 177.331 228.554C176.556 228.891 175.647 229.059 174.602 229.059C173.575 229.059 172.665 228.891 171.874 228.554C171.082 228.2 170.417 227.72 169.878 227.114C169.339 226.491 168.934 225.766 168.665 224.941C168.395 224.116 168.261 223.223 168.261 222.263ZM183.476 215.719H185.497V217.639H185.548C186.525 216.157 187.931 215.416 189.767 215.416C190.576 215.416 191.308 215.584 191.965 215.921C192.622 216.258 193.085 216.831 193.355 217.639C193.793 216.932 194.365 216.384 195.073 215.997C195.797 215.61 196.589 215.416 197.448 215.416C198.105 215.416 198.694 215.492 199.216 215.643C199.755 215.778 200.21 215.997 200.581 216.3C200.968 216.603 201.263 216.999 201.465 217.488C201.684 217.959 201.793 218.532 201.793 219.206V228.781H199.646V220.216C199.646 219.812 199.612 219.433 199.545 219.079C199.477 218.726 199.351 218.422 199.166 218.17C198.98 217.9 198.719 217.69 198.383 217.538C198.063 217.387 197.641 217.311 197.119 217.311C196.058 217.311 195.224 217.614 194.618 218.22C194.012 218.827 193.708 219.635 193.708 220.646V228.781H191.561V220.216C191.561 219.795 191.519 219.408 191.435 219.054C191.367 218.7 191.241 218.397 191.056 218.144C190.87 217.875 190.618 217.673 190.298 217.538C189.994 217.387 189.599 217.311 189.11 217.311C188.487 217.311 187.948 217.437 187.493 217.69C187.055 217.942 186.693 218.246 186.407 218.599C186.137 218.953 185.935 219.324 185.8 219.711C185.682 220.082 185.623 220.393 185.623 220.646V228.781H183.476V215.719ZM205.091 215.719H207.239V217.488H207.29C207.643 216.763 208.199 216.241 208.957 215.921C209.715 215.584 210.549 215.416 211.458 215.416C212.469 215.416 213.345 215.601 214.086 215.972C214.844 216.342 215.467 216.848 215.956 217.488C216.461 218.111 216.84 218.835 217.093 219.66C217.345 220.486 217.472 221.362 217.472 222.288C217.472 223.214 217.345 224.09 217.093 224.916C216.857 225.741 216.486 226.465 215.981 227.088C215.492 227.695 214.869 228.175 214.111 228.529C213.37 228.882 212.503 229.059 211.509 229.059C211.189 229.059 210.827 229.025 210.423 228.958C210.035 228.891 209.648 228.781 209.26 228.63C208.873 228.478 208.502 228.276 208.149 228.023C207.812 227.754 207.525 227.425 207.29 227.038H207.239V233.759H205.091V215.719ZM215.198 222.136C215.198 221.53 215.113 220.941 214.945 220.368C214.793 219.778 214.549 219.256 214.212 218.801C213.892 218.347 213.471 217.984 212.949 217.715C212.444 217.445 211.846 217.311 211.155 217.311C210.431 217.311 209.816 217.454 209.311 217.74C208.806 218.027 208.393 218.406 208.073 218.877C207.753 219.332 207.517 219.854 207.365 220.444C207.231 221.033 207.163 221.631 207.163 222.238C207.163 222.878 207.239 223.501 207.391 224.107C207.542 224.697 207.778 225.219 208.098 225.674C208.435 226.128 208.864 226.499 209.387 226.785C209.909 227.055 210.54 227.19 211.282 227.19C212.023 227.19 212.637 227.046 213.126 226.76C213.631 226.474 214.035 226.095 214.339 225.623C214.642 225.151 214.861 224.612 214.996 224.006C215.13 223.4 215.198 222.776 215.198 222.136ZM220.119 210.742H222.266V228.781H220.119V210.742ZM234.664 220.999C234.63 220.494 234.512 220.014 234.31 219.559C234.125 219.105 233.863 218.717 233.527 218.397C233.207 218.06 232.819 217.799 232.364 217.614C231.926 217.412 231.438 217.311 230.899 217.311C230.343 217.311 229.838 217.412 229.383 217.614C228.945 217.799 228.566 218.06 228.246 218.397C227.926 218.734 227.673 219.13 227.488 219.585C227.303 220.023 227.193 220.494 227.16 220.999H234.664ZM236.735 224.638C236.449 226.103 235.817 227.206 234.84 227.947C233.863 228.689 232.634 229.059 231.152 229.059C230.107 229.059 229.198 228.891 228.423 228.554C227.665 228.217 227.025 227.745 226.503 227.139C225.981 226.533 225.585 225.808 225.315 224.966C225.063 224.124 224.919 223.206 224.886 222.212C224.886 221.218 225.037 220.309 225.341 219.484C225.644 218.658 226.065 217.942 226.604 217.336C227.16 216.73 227.808 216.258 228.549 215.921C229.307 215.584 230.133 215.416 231.025 215.416C232.187 215.416 233.148 215.66 233.906 216.149C234.68 216.62 235.295 217.227 235.75 217.968C236.222 218.709 236.542 219.517 236.71 220.393C236.895 221.269 236.971 222.103 236.937 222.894H227.16C227.143 223.467 227.21 224.015 227.362 224.537C227.513 225.042 227.758 225.497 228.094 225.901C228.431 226.288 228.861 226.6 229.383 226.836C229.905 227.072 230.52 227.19 231.227 227.19C232.137 227.19 232.878 226.979 233.451 226.558C234.04 226.137 234.428 225.497 234.613 224.638H236.735ZM242.145 215.719H244.747V217.614H242.145V225.724C242.145 225.977 242.162 226.179 242.195 226.331C242.246 226.482 242.33 226.6 242.448 226.684C242.566 226.768 242.726 226.827 242.928 226.861C243.147 226.878 243.425 226.886 243.762 226.886H244.747V228.781H243.105C242.549 228.781 242.069 228.748 241.665 228.68C241.277 228.596 240.957 228.453 240.705 228.251C240.469 228.049 240.292 227.762 240.174 227.392C240.056 227.021 239.997 226.533 239.997 225.926V217.614H237.774V215.719H239.997V211.803H242.145V215.719ZM256.203 220.999C256.17 220.494 256.052 220.014 255.85 219.559C255.664 219.105 255.403 218.717 255.066 218.397C254.746 218.06 254.359 217.799 253.904 217.614C253.466 217.412 252.978 217.311 252.439 217.311C251.883 217.311 251.378 217.412 250.923 217.614C250.485 217.799 250.106 218.06 249.786 218.397C249.466 218.734 249.213 219.13 249.028 219.585C248.843 220.023 248.733 220.494 248.699 220.999H256.203ZM258.275 224.638C257.989 226.103 257.357 227.206 256.38 227.947C255.403 228.689 254.174 229.059 252.691 229.059C251.647 229.059 250.738 228.891 249.963 228.554C249.205 228.217 248.565 227.745 248.043 227.139C247.52 226.533 247.125 225.808 246.855 224.966C246.602 224.124 246.459 223.206 246.426 222.212C246.426 221.218 246.577 220.309 246.88 219.484C247.184 218.658 247.605 217.942 248.144 217.336C248.699 216.73 249.348 216.258 250.089 215.921C250.847 215.584 251.672 215.416 252.565 215.416C253.727 215.416 254.687 215.66 255.445 216.149C256.22 216.62 256.835 217.227 257.29 217.968C257.761 218.709 258.081 219.517 258.25 220.393C258.435 221.269 258.511 222.103 258.477 222.894H248.699C248.683 223.467 248.75 224.015 248.902 224.537C249.053 225.042 249.297 225.497 249.634 225.901C249.971 226.288 250.401 226.6 250.923 226.836C251.445 227.072 252.06 227.19 252.767 227.19C253.677 227.19 254.418 226.979 254.991 226.558C255.58 226.137 255.967 225.497 256.153 224.638H258.275ZM270.717 215.719H273.319V217.614H270.717V225.724C270.717 225.977 270.733 226.179 270.767 226.331C270.818 226.482 270.902 226.6 271.02 226.684C271.138 226.768 271.298 226.827 271.5 226.861C271.719 226.878 271.997 226.886 272.333 226.886H273.319V228.781H271.677C271.121 228.781 270.641 228.748 270.236 228.68C269.849 228.596 269.529 228.453 269.276 228.251C269.041 228.049 268.864 227.762 268.746 227.392C268.628 227.021 268.569 226.533 268.569 225.926V217.614H266.346V215.719H268.569V211.803H270.717V215.719ZM275.705 210.742H277.852V217.639H277.903C278.071 217.235 278.307 216.898 278.61 216.629C278.913 216.342 279.25 216.115 279.621 215.946C280.008 215.761 280.404 215.626 280.808 215.542C281.229 215.458 281.634 215.416 282.021 215.416C282.88 215.416 283.596 215.534 284.169 215.77C284.741 216.005 285.204 216.334 285.558 216.755C285.912 217.176 286.156 217.681 286.291 218.271C286.442 218.844 286.518 219.484 286.518 220.191V228.781H284.371V219.938C284.371 219.13 284.135 218.49 283.663 218.018C283.192 217.547 282.543 217.311 281.718 217.311C281.061 217.311 280.488 217.412 280 217.614C279.528 217.816 279.132 218.102 278.812 218.473C278.492 218.844 278.248 219.281 278.08 219.787C277.928 220.275 277.852 220.814 277.852 221.404V228.781H275.705V210.742ZM298.814 220.999C298.78 220.494 298.662 220.014 298.46 219.559C298.275 219.105 298.014 218.717 297.677 218.397C297.357 218.06 296.97 217.799 296.515 217.614C296.077 217.412 295.588 217.311 295.049 217.311C294.494 217.311 293.988 217.412 293.534 217.614C293.096 217.799 292.717 218.06 292.397 218.397C292.077 218.734 291.824 219.13 291.639 219.585C291.453 220.023 291.344 220.494 291.31 220.999H298.814ZM300.886 224.638C300.599 226.103 299.968 227.206 298.991 227.947C298.014 228.689 296.784 229.059 295.302 229.059C294.258 229.059 293.348 228.891 292.573 228.554C291.816 228.217 291.175 227.745 290.653 227.139C290.131 226.533 289.735 225.808 289.466 224.966C289.213 224.124 289.07 223.206 289.036 222.212C289.036 221.218 289.188 220.309 289.491 219.484C289.794 218.658 290.215 217.942 290.754 217.336C291.31 216.73 291.959 216.258 292.7 215.921C293.458 215.584 294.283 215.416 295.176 215.416C296.338 215.416 297.298 215.66 298.056 216.149C298.831 216.62 299.446 217.227 299.9 217.968C300.372 218.709 300.692 219.517 300.861 220.393C301.046 221.269 301.122 222.103 301.088 222.894H291.31C291.293 223.467 291.361 224.015 291.512 224.537C291.664 225.042 291.908 225.497 292.245 225.901C292.582 226.288 293.011 226.6 293.534 226.836C294.056 227.072 294.671 227.19 295.378 227.19C296.287 227.19 297.029 226.979 297.601 226.558C298.191 226.137 298.578 225.497 298.764 224.638H300.886ZM46.2471 238.369H44.0995V235.742H46.2471V238.369ZM44.0995 240.719H46.2471V253.781H44.0995V240.719ZM49.574 240.719H51.5953V242.791H51.6458C52.5385 241.207 53.9534 240.416 55.8904 240.416C56.7494 240.416 57.4653 240.534 58.0379 240.77C58.6106 241.005 59.0738 241.334 59.4275 241.755C59.7813 242.176 60.0255 242.681 60.1602 243.271C60.3118 243.844 60.3876 244.484 60.3876 245.191V253.781H58.2401V244.938C58.2401 244.13 58.0043 243.49 57.5326 243.018C57.061 242.547 56.4125 242.311 55.5872 242.311C54.9303 242.311 54.3576 242.412 53.8691 242.614C53.3975 242.816 53.0017 243.102 52.6817 243.473C52.3616 243.844 52.1174 244.281 51.949 244.787C51.7974 245.275 51.7216 245.814 51.7216 246.404V253.781H49.574V240.719ZM69.5 253.781H67.2008L62.3498 240.719H64.7501L68.4136 251.608H68.4641L72.0265 240.719H74.2751L69.5 253.781ZM85.3161 245.999C85.2824 245.494 85.1645 245.014 84.9624 244.559C84.7771 244.105 84.5161 243.717 84.1792 243.397C83.8592 243.06 83.4718 242.799 83.017 242.614C82.579 242.412 82.0906 242.311 81.5516 242.311C80.9957 242.311 80.4904 242.412 80.0357 242.614C79.5977 242.799 79.2187 243.06 78.8987 243.397C78.5787 243.734 78.326 244.13 78.1407 244.585C77.9555 245.023 77.846 245.494 77.8123 245.999H85.3161ZM87.3879 249.638C87.1016 251.103 86.4699 252.206 85.493 252.947C84.5161 253.689 83.2865 254.059 81.8042 254.059C80.7599 254.059 79.8504 253.891 79.0756 253.554C78.3176 253.217 77.6775 252.745 77.1554 252.139C76.6332 251.533 76.2374 250.808 75.9679 249.966C75.7153 249.124 75.5721 248.206 75.5384 247.212C75.5384 246.218 75.69 245.309 75.9932 244.484C76.2964 243.658 76.7175 242.942 77.2565 242.336C77.8123 241.73 78.4608 241.258 79.2019 240.921C79.9599 240.584 80.7852 240.416 81.6779 240.416C82.8401 240.416 83.8002 240.66 84.5582 241.149C85.333 241.62 85.9478 242.227 86.4025 242.968C86.8742 243.709 87.1942 244.517 87.3626 245.393C87.5479 246.269 87.6237 247.103 87.59 247.894H77.8123C77.7955 248.467 77.8628 249.015 78.0144 249.537C78.166 250.042 78.4102 250.497 78.7471 250.901C79.084 251.288 79.5135 251.6 80.0357 251.836C80.5578 252.072 81.1726 252.19 81.88 252.19C82.7896 252.19 83.5307 251.979 84.1034 251.558C84.6929 251.137 85.0803 250.497 85.2656 249.638H87.3879ZM91.1299 249.663C91.1468 250.135 91.2563 250.539 91.4584 250.876C91.6605 251.196 91.9216 251.457 92.2416 251.659C92.5785 251.844 92.9491 251.979 93.3533 252.063C93.7744 252.147 94.2039 252.19 94.6418 252.19C94.9787 252.19 95.3324 252.164 95.703 252.114C96.0736 252.063 96.4104 251.971 96.7136 251.836C97.0336 251.701 97.2947 251.507 97.4968 251.255C97.699 250.985 97.8 250.648 97.8 250.244C97.8 249.688 97.5895 249.267 97.1684 248.981C96.7473 248.694 96.2167 248.467 95.5767 248.299C94.9535 248.113 94.2713 247.953 93.5302 247.819C92.789 247.667 92.0985 247.465 91.4584 247.212C90.8352 246.943 90.313 246.572 89.8919 246.101C89.4709 245.629 89.2603 244.972 89.2603 244.13C89.2603 243.473 89.4035 242.909 89.6898 242.437C89.993 241.965 90.372 241.586 90.8268 241.3C91.2984 240.997 91.8205 240.778 92.3932 240.643C92.9827 240.492 93.5639 240.416 94.1365 240.416C94.8777 240.416 95.5598 240.483 96.183 240.618C96.8063 240.736 97.3537 240.955 97.8253 241.275C98.3138 241.578 98.7012 241.999 98.9875 242.538C99.2738 243.06 99.4423 243.717 99.4928 244.509H97.3452C97.3116 244.088 97.2021 243.742 97.0168 243.473C96.8315 243.187 96.5957 242.959 96.3094 242.791C96.023 242.622 95.703 242.504 95.3493 242.437C95.0124 242.353 94.6671 242.311 94.3134 242.311C93.9934 242.311 93.6649 242.336 93.328 242.387C93.008 242.437 92.7133 242.53 92.4438 242.664C92.1743 242.782 91.9553 242.951 91.7869 243.17C91.6184 243.372 91.5342 243.641 91.5342 243.978C91.5342 244.349 91.6605 244.66 91.9132 244.913C92.1827 245.149 92.5195 245.351 92.9238 245.519C93.328 245.671 93.7828 245.806 94.2881 245.924C94.7934 246.025 95.2987 246.134 95.8041 246.252C96.3431 246.37 96.8652 246.513 97.3705 246.682C97.8927 246.85 98.3474 247.077 98.7348 247.364C99.1391 247.633 99.4591 247.979 99.6949 248.4C99.9476 248.821 100.074 249.343 100.074 249.966C100.074 250.758 99.9055 251.415 99.5686 251.937C99.2486 252.459 98.8191 252.88 98.2801 253.2C97.7579 253.52 97.16 253.739 96.4862 253.857C95.8293 253.992 95.1724 254.059 94.5155 254.059C93.7912 254.059 93.1007 253.983 92.4438 253.832C91.7869 253.68 91.2057 253.436 90.7004 253.099C90.1951 252.745 89.7909 252.291 89.4877 251.735C89.1845 251.162 89.0161 250.471 88.9824 249.663H91.1299ZM105.43 240.719H108.033V242.614H105.43V250.724C105.43 250.977 105.447 251.179 105.481 251.331C105.531 251.482 105.615 251.6 105.733 251.684C105.851 251.768 106.011 251.827 106.213 251.861C106.432 251.878 106.71 251.886 107.047 251.886H108.033V253.781H106.39C105.834 253.781 105.354 253.748 104.95 253.68C104.563 253.596 104.243 253.453 103.99 253.251C103.754 253.049 103.577 252.762 103.459 252.392C103.342 252.021 103.283 251.533 103.283 250.926V242.614H101.059V240.719H103.283V236.803H105.43V240.719ZM110.418 240.719H112.44V242.639H112.49C113.467 241.157 114.873 240.416 116.709 240.416C117.518 240.416 118.251 240.584 118.908 240.921C119.564 241.258 120.028 241.831 120.297 242.639C120.735 241.932 121.308 241.384 122.015 240.997C122.739 240.61 123.531 240.416 124.39 240.416C125.047 240.416 125.637 240.492 126.159 240.643C126.698 240.778 127.152 240.997 127.523 241.3C127.91 241.603 128.205 241.999 128.407 242.488C128.626 242.959 128.736 243.532 128.736 244.206V253.781H126.588V245.216C126.588 244.812 126.555 244.433 126.487 244.079C126.42 243.726 126.293 243.422 126.108 243.17C125.923 242.9 125.662 242.69 125.325 242.538C125.005 242.387 124.584 242.311 124.062 242.311C123.001 242.311 122.167 242.614 121.56 243.22C120.954 243.827 120.651 244.635 120.651 245.646V253.781H118.503V245.216C118.503 244.795 118.461 244.408 118.377 244.054C118.31 243.7 118.183 243.397 117.998 243.144C117.813 242.875 117.56 242.673 117.24 242.538C116.937 242.387 116.541 242.311 116.053 242.311C115.429 242.311 114.89 242.437 114.436 242.69C113.998 242.942 113.635 243.246 113.349 243.599C113.08 243.953 112.878 244.324 112.743 244.711C112.625 245.082 112.566 245.393 112.566 245.646V253.781H110.418V240.719ZM141.028 245.999C140.995 245.494 140.877 245.014 140.675 244.559C140.489 244.105 140.228 243.717 139.891 243.397C139.571 243.06 139.184 242.799 138.729 242.614C138.291 242.412 137.803 242.311 137.264 242.311C136.708 242.311 136.203 242.412 135.748 242.614C135.31 242.799 134.931 243.06 134.611 243.397C134.291 243.734 134.038 244.13 133.853 244.585C133.668 245.023 133.558 245.494 133.525 245.999H141.028ZM143.1 249.638C142.814 251.103 142.182 252.206 141.205 252.947C140.228 253.689 138.999 254.059 137.517 254.059C136.472 254.059 135.563 253.891 134.788 253.554C134.03 253.217 133.39 252.745 132.868 252.139C132.346 251.533 131.95 250.808 131.68 249.966C131.428 249.124 131.284 248.206 131.251 247.212C131.251 246.218 131.402 245.309 131.705 244.484C132.009 243.658 132.43 242.942 132.969 242.336C133.525 241.73 134.173 241.258 134.914 240.921C135.672 240.584 136.497 240.416 137.39 240.416C138.552 240.416 139.512 240.66 140.27 241.149C141.045 241.62 141.66 242.227 142.115 242.968C142.586 243.709 142.906 244.517 143.075 245.393C143.26 246.269 143.336 247.103 143.302 247.894H133.525C133.508 248.467 133.575 249.015 133.727 249.537C133.878 250.042 134.123 250.497 134.459 250.901C134.796 251.288 135.226 251.6 135.748 251.836C136.27 252.072 136.885 252.19 137.592 252.19C138.502 252.19 139.243 251.979 139.816 251.558C140.405 251.137 140.793 250.497 140.978 249.638H143.1ZM145.528 240.719H147.55V242.791H147.6C148.493 241.207 149.908 240.416 151.845 240.416C152.704 240.416 153.42 240.534 153.992 240.77C154.565 241.005 155.028 241.334 155.382 241.755C155.736 242.176 155.98 242.681 156.115 243.271C156.266 243.844 156.342 244.484 156.342 245.191V253.781H154.194V244.938C154.194 244.13 153.959 243.49 153.487 243.018C153.015 242.547 152.367 242.311 151.542 242.311C150.885 242.311 150.312 242.412 149.824 242.614C149.352 242.816 148.956 243.102 148.636 243.473C148.316 243.844 148.072 244.281 147.903 244.787C147.752 245.275 147.676 245.814 147.676 246.404V253.781H145.528V240.719ZM162.549 240.719H165.151V242.614H162.549V250.724C162.549 250.977 162.566 251.179 162.599 251.331C162.65 251.482 162.734 251.6 162.852 251.684C162.97 251.768 163.13 251.827 163.332 251.861C163.551 251.878 163.829 251.886 164.166 251.886H165.151V253.781H163.509C162.953 253.781 162.473 253.748 162.069 253.68C161.681 253.596 161.361 253.453 161.109 253.251C160.873 253.049 160.696 252.762 160.578 252.392C160.46 252.021 160.401 251.533 160.401 250.926V242.614H158.178V240.719H160.401V236.803H162.549V240.719ZM168.851 249.663C168.868 250.135 168.977 250.539 169.179 250.876C169.381 251.196 169.642 251.457 169.962 251.659C170.299 251.844 170.67 251.979 171.074 252.063C171.495 252.147 171.925 252.19 172.363 252.19C172.7 252.19 173.053 252.164 173.424 252.114C173.794 252.063 174.131 251.971 174.434 251.836C174.754 251.701 175.016 251.507 175.218 251.255C175.42 250.985 175.521 250.648 175.521 250.244C175.521 249.688 175.31 249.267 174.889 248.981C174.468 248.694 173.938 248.467 173.297 248.299C172.674 248.113 171.992 247.953 171.251 247.819C170.51 247.667 169.819 247.465 169.179 247.212C168.556 246.943 168.034 246.572 167.613 246.101C167.192 245.629 166.981 244.972 166.981 244.13C166.981 243.473 167.124 242.909 167.411 242.437C167.714 241.965 168.093 241.586 168.548 241.3C169.019 240.997 169.541 240.778 170.114 240.643C170.704 240.492 171.285 240.416 171.857 240.416C172.598 240.416 173.281 240.483 173.904 240.618C174.527 240.736 175.075 240.955 175.546 241.275C176.035 241.578 176.422 241.999 176.708 242.538C176.995 243.06 177.163 243.717 177.214 244.509H175.066C175.032 244.088 174.923 243.742 174.738 243.473C174.552 243.187 174.317 242.959 174.03 242.791C173.744 242.622 173.424 242.504 173.07 242.437C172.733 242.353 172.388 242.311 172.034 242.311C171.714 242.311 171.386 242.336 171.049 242.387C170.729 242.437 170.434 242.53 170.165 242.664C169.895 242.782 169.676 242.951 169.508 243.17C169.339 243.372 169.255 243.641 169.255 243.978C169.255 244.349 169.381 244.66 169.634 244.913C169.904 245.149 170.24 245.351 170.645 245.519C171.049 245.671 171.504 245.806 172.009 245.924C172.514 246.025 173.02 246.134 173.525 246.252C174.064 246.37 174.586 246.513 175.091 246.682C175.613 246.85 176.068 247.077 176.456 247.364C176.86 247.633 177.18 247.979 177.416 248.4C177.668 248.821 177.795 249.343 177.795 249.966C177.795 250.758 177.626 251.415 177.289 251.937C176.969 252.459 176.54 252.88 176.001 253.2C175.479 253.52 174.881 253.739 174.207 253.857C173.55 253.992 172.893 254.059 172.236 254.059C171.512 254.059 170.821 253.983 170.165 253.832C169.508 253.68 168.927 253.436 168.421 253.099C167.916 252.745 167.512 252.291 167.209 251.735C166.905 251.162 166.737 250.471 166.703 249.663H168.851ZM190.183 240.719H192.785V242.614H190.183V250.724C190.183 250.977 190.2 251.179 190.233 251.331C190.284 251.482 190.368 251.6 190.486 251.684C190.604 251.768 190.764 251.827 190.966 251.861C191.185 251.878 191.463 251.886 191.8 251.886H192.785V253.781H191.143C190.587 253.781 190.107 253.748 189.703 253.68C189.315 253.596 188.995 253.453 188.743 253.251C188.507 253.049 188.33 252.762 188.212 252.392C188.094 252.021 188.035 251.533 188.035 250.926V242.614H185.812V240.719H188.035V236.803H190.183V240.719ZM196.738 247.263C196.738 248.054 196.839 248.762 197.041 249.385C197.26 249.991 197.554 250.505 197.925 250.926C198.296 251.331 198.725 251.642 199.214 251.861C199.719 252.08 200.249 252.19 200.805 252.19C201.361 252.19 201.883 252.08 202.372 251.861C202.877 251.642 203.315 251.331 203.686 250.926C204.056 250.505 204.342 249.991 204.545 249.385C204.763 248.762 204.873 248.054 204.873 247.263C204.873 246.471 204.763 245.772 204.545 245.166C204.342 244.543 204.056 244.02 203.686 243.599C203.315 243.178 202.877 242.858 202.372 242.639C201.883 242.42 201.361 242.311 200.805 242.311C200.249 242.311 199.719 242.42 199.214 242.639C198.725 242.858 198.296 243.178 197.925 243.599C197.554 244.02 197.26 244.543 197.041 245.166C196.839 245.772 196.738 246.471 196.738 247.263ZM194.464 247.263C194.464 246.303 194.598 245.41 194.868 244.585C195.137 243.742 195.542 243.018 196.081 242.412C196.62 241.789 197.285 241.3 198.077 240.946C198.868 240.593 199.778 240.416 200.805 240.416C201.85 240.416 202.759 240.593 203.534 240.946C204.326 241.3 204.991 241.789 205.53 242.412C206.069 243.018 206.473 243.742 206.743 244.585C207.012 245.41 207.147 246.303 207.147 247.263C207.147 248.223 207.012 249.116 206.743 249.941C206.473 250.766 206.069 251.491 205.53 252.114C204.991 252.72 204.326 253.2 203.534 253.554C202.759 253.891 201.85 254.059 200.805 254.059C199.778 254.059 198.868 253.891 198.077 253.554C197.285 253.2 196.62 252.72 196.081 252.114C195.542 251.491 195.137 250.766 194.868 249.941C194.598 249.116 194.464 248.223 194.464 247.263ZM220.947 252.67C220.947 254.809 220.459 256.409 219.482 257.47C218.505 258.531 216.972 259.062 214.884 259.062C214.277 259.062 213.654 258.994 213.014 258.86C212.391 258.725 211.818 258.506 211.296 258.203C210.791 257.9 210.37 257.504 210.033 257.015C209.696 256.527 209.511 255.929 209.477 255.221H211.624C211.641 255.609 211.759 255.937 211.978 256.207C212.214 256.476 212.492 256.695 212.812 256.864C213.149 257.032 213.511 257.15 213.898 257.217C214.286 257.302 214.656 257.344 215.01 257.344C215.717 257.344 216.315 257.217 216.804 256.965C217.292 256.729 217.697 256.392 218.017 255.954C218.337 255.533 218.564 255.019 218.699 254.413C218.85 253.807 218.926 253.141 218.926 252.417V251.558H218.876C218.505 252.366 217.941 252.964 217.183 253.352C216.442 253.722 215.65 253.908 214.808 253.908C213.831 253.908 212.98 253.731 212.256 253.377C211.532 253.023 210.925 252.552 210.437 251.962C209.948 251.356 209.578 250.657 209.325 249.865C209.089 249.057 208.972 248.206 208.972 247.313C208.972 246.538 209.073 245.747 209.275 244.938C209.477 244.113 209.814 243.372 210.285 242.715C210.757 242.041 211.38 241.494 212.155 241.073C212.93 240.635 213.881 240.416 215.01 240.416C215.835 240.416 216.593 240.601 217.284 240.972C217.974 241.325 218.513 241.864 218.901 242.589H218.926V240.719H220.947V252.67ZM214.934 252.038C215.642 252.038 216.24 251.895 216.728 251.608C217.233 251.305 217.638 250.918 217.941 250.446C218.244 249.958 218.463 249.41 218.598 248.804C218.749 248.198 218.825 247.591 218.825 246.985C218.825 246.412 218.758 245.848 218.623 245.292C218.488 244.736 218.269 244.239 217.966 243.801C217.68 243.347 217.301 242.984 216.829 242.715C216.357 242.445 215.785 242.311 215.111 242.311C214.42 242.311 213.831 242.445 213.342 242.715C212.854 242.968 212.45 243.313 212.13 243.751C211.827 244.189 211.599 244.694 211.448 245.267C211.313 245.839 211.245 246.437 211.245 247.061C211.245 247.65 211.304 248.24 211.422 248.829C211.54 249.419 211.742 249.958 212.029 250.446C212.315 250.918 212.694 251.305 213.166 251.608C213.637 251.895 214.227 252.038 214.934 252.038ZM233.257 245.999C233.223 245.494 233.106 245.014 232.903 244.559C232.718 244.105 232.457 243.717 232.12 243.397C231.8 243.06 231.413 242.799 230.958 242.614C230.52 242.412 230.032 242.311 229.493 242.311C228.937 242.311 228.431 242.412 227.977 242.614C227.539 242.799 227.16 243.06 226.84 243.397C226.52 243.734 226.267 244.13 226.082 244.585C225.896 245.023 225.787 245.494 225.753 245.999H233.257ZM235.329 249.638C235.043 251.103 234.411 252.206 233.434 252.947C232.457 253.689 231.227 254.059 229.745 254.059C228.701 254.059 227.791 253.891 227.017 253.554C226.259 253.217 225.619 252.745 225.096 252.139C224.574 251.533 224.178 250.808 223.909 249.966C223.656 249.124 223.513 248.206 223.479 247.212C223.479 246.218 223.631 245.309 223.934 244.484C224.237 243.658 224.658 242.942 225.197 242.336C225.753 241.73 226.402 241.258 227.143 240.921C227.901 240.584 228.726 240.416 229.619 240.416C230.781 240.416 231.741 240.66 232.499 241.149C233.274 241.62 233.889 242.227 234.344 242.968C234.815 243.709 235.135 244.517 235.304 245.393C235.489 246.269 235.565 247.103 235.531 247.894H225.753C225.736 248.467 225.804 249.015 225.955 249.537C226.107 250.042 226.351 250.497 226.688 250.901C227.025 251.288 227.455 251.6 227.977 251.836C228.499 252.072 229.114 252.19 229.821 252.19C230.731 252.19 231.472 251.979 232.044 251.558C232.634 251.137 233.021 250.497 233.207 249.638H235.329ZM240.738 240.719H243.341V242.614H240.738V250.724C240.738 250.977 240.755 251.179 240.789 251.331C240.84 251.482 240.924 251.6 241.042 251.684C241.16 251.768 241.32 251.827 241.522 251.861C241.741 251.878 242.019 251.886 242.355 251.886H243.341V253.781H241.699C241.143 253.781 240.663 253.748 240.258 253.68C239.871 253.596 239.551 253.453 239.298 253.251C239.063 253.049 238.886 252.762 238.768 252.392C238.65 252.021 238.591 251.533 238.591 250.926V242.614H236.368V240.719H238.591V236.803H240.738V240.719ZM245.727 235.742H247.874V242.639H247.925C248.093 242.235 248.329 241.898 248.632 241.629C248.935 241.342 249.272 241.115 249.643 240.946C250.03 240.761 250.426 240.626 250.83 240.542C251.251 240.458 251.656 240.416 252.043 240.416C252.902 240.416 253.618 240.534 254.191 240.77C254.763 241.005 255.226 241.334 255.58 241.755C255.934 242.176 256.178 242.681 256.313 243.271C256.464 243.844 256.54 244.484 256.54 245.191V253.781H254.393V244.938C254.393 244.13 254.157 243.49 253.685 243.018C253.214 242.547 252.565 242.311 251.74 242.311C251.083 242.311 250.51 242.412 250.022 242.614C249.55 242.816 249.154 243.102 248.834 243.473C248.514 243.844 248.27 244.281 248.102 244.787C247.95 245.275 247.874 245.814 247.874 246.404V253.781H245.727V235.742ZM268.836 245.999C268.802 245.494 268.684 245.014 268.482 244.559C268.297 244.105 268.036 243.717 267.699 243.397C267.379 243.06 266.992 242.799 266.537 242.614C266.099 242.412 265.61 242.311 265.071 242.311C264.516 242.311 264.01 242.412 263.556 242.614C263.118 242.799 262.739 243.06 262.419 243.397C262.099 243.734 261.846 244.13 261.661 244.585C261.475 245.023 261.366 245.494 261.332 245.999H268.836ZM270.908 249.638C270.621 251.103 269.99 252.206 269.013 252.947C268.036 253.689 266.806 254.059 265.324 254.059C264.28 254.059 263.37 253.891 262.595 253.554C261.837 253.217 261.197 252.745 260.675 252.139C260.153 251.533 259.757 250.808 259.488 249.966C259.235 249.124 259.092 248.206 259.058 247.212C259.058 246.218 259.21 245.309 259.513 244.484C259.816 243.658 260.237 242.942 260.776 242.336C261.332 241.73 261.981 241.258 262.722 240.921C263.48 240.584 264.305 240.416 265.198 240.416C266.36 240.416 267.32 240.66 268.078 241.149C268.853 241.62 269.468 242.227 269.922 242.968C270.394 243.709 270.714 244.517 270.882 245.393C271.068 246.269 271.144 247.103 271.11 247.894H261.332C261.315 248.467 261.383 249.015 261.534 249.537C261.686 250.042 261.93 250.497 262.267 250.901C262.604 251.288 263.033 251.6 263.556 251.836C264.078 252.072 264.692 252.19 265.4 252.19C266.309 252.19 267.051 251.979 267.623 251.558C268.213 251.137 268.6 250.497 268.785 249.638H270.908ZM273.26 240.719H275.281V243.473H275.332C275.854 242.412 276.494 241.629 277.252 241.123C278.01 240.618 278.97 240.382 280.132 240.416V242.69C279.273 242.69 278.541 242.808 277.934 243.043C277.328 243.279 276.839 243.625 276.469 244.079C276.098 244.534 275.829 245.09 275.66 245.747C275.492 246.387 275.408 247.128 275.408 247.97V253.781H273.26V240.719ZM279.91 250.977H282.715V253.781H279.91V250.977ZM57.0102 266.174C56.7407 264.894 56.1427 263.934 55.2163 263.294C54.3068 262.653 53.2203 262.333 51.9571 262.333C50.8791 262.333 49.9527 262.536 49.1779 262.94C48.4199 263.344 47.7883 263.891 47.283 264.582C46.7945 265.256 46.4324 266.031 46.1965 266.906C45.9607 267.782 45.8428 268.692 45.8428 269.635C45.8428 270.663 45.9607 271.64 46.1965 272.566C46.4324 273.476 46.7945 274.276 47.283 274.966C47.7883 275.64 48.4283 276.179 49.2031 276.583C49.9779 276.987 50.9043 277.19 51.9823 277.19C52.774 277.19 53.473 277.063 54.0794 276.811C54.7026 276.541 55.2332 276.179 55.6711 275.724C56.1259 275.253 56.4796 274.697 56.7322 274.057C56.9849 273.417 57.1365 272.726 57.187 271.985H59.5872C59.3514 274.259 58.5682 276.027 57.2375 277.291C55.9069 278.554 54.0878 279.185 51.7802 279.185C50.3822 279.185 49.161 278.95 48.1167 278.478C47.0724 277.99 46.205 277.324 45.5144 276.482C44.8238 275.64 44.3016 274.646 43.9479 273.501C43.6111 272.355 43.4426 271.126 43.4426 269.812C43.4426 268.498 43.6279 267.269 43.9985 266.123C44.369 264.961 44.908 263.95 45.6154 263.091C46.3397 262.232 47.2324 261.559 48.2936 261.07C49.3716 260.565 50.6012 260.312 51.9823 260.312C52.9256 260.312 53.8183 260.439 54.6605 260.691C55.5027 260.944 56.2522 261.314 56.9091 261.803C57.566 262.291 58.1134 262.906 58.5513 263.647C58.9893 264.372 59.2756 265.214 59.4104 266.174H57.0102ZM63.7732 272.263C63.7732 273.054 63.8743 273.762 64.0764 274.385C64.2954 274.991 64.5901 275.505 64.9607 275.926C65.3312 276.331 65.7607 276.642 66.2492 276.861C66.7545 277.08 67.2851 277.19 67.8409 277.19C68.3968 277.19 68.9189 277.08 69.4074 276.861C69.9127 276.642 70.3506 276.331 70.7212 275.926C71.0918 275.505 71.3781 274.991 71.5802 274.385C71.7992 273.762 71.9087 273.054 71.9087 272.263C71.9087 271.471 71.7992 270.772 71.5802 270.166C71.3781 269.543 71.0918 269.02 70.7212 268.599C70.3506 268.178 69.9127 267.858 69.4074 267.639C68.9189 267.42 68.3968 267.311 67.8409 267.311C67.2851 267.311 66.7545 267.42 66.2492 267.639C65.7607 267.858 65.3312 268.178 64.9607 268.599C64.5901 269.02 64.2954 269.543 64.0764 270.166C63.8743 270.772 63.7732 271.471 63.7732 272.263ZM61.4993 272.263C61.4993 271.303 61.6341 270.41 61.9036 269.585C62.1731 268.742 62.5773 268.018 63.1163 267.412C63.6553 266.789 64.3206 266.3 65.1123 265.946C65.9039 265.593 66.8135 265.416 67.8409 265.416C68.8852 265.416 69.7948 265.593 70.5696 265.946C71.3613 266.3 72.0266 266.789 72.5656 267.412C73.1046 268.018 73.5088 268.742 73.7783 269.585C74.0478 270.41 74.1826 271.303 74.1826 272.263C74.1826 273.223 74.0478 274.116 73.7783 274.941C73.5088 275.766 73.1046 276.491 72.5656 277.114C72.0266 277.72 71.3613 278.2 70.5696 278.554C69.7948 278.891 68.8852 279.059 67.8409 279.059C66.8135 279.059 65.9039 278.891 65.1123 278.554C64.3206 278.2 63.6553 277.72 63.1163 277.114C62.5773 276.491 62.1731 275.766 61.9036 274.941C61.6341 274.116 61.4993 273.223 61.4993 272.263ZM76.7146 265.719H78.7359V267.639H78.7864C79.7633 266.157 81.1698 265.416 83.0057 265.416C83.8142 265.416 84.5469 265.584 85.2038 265.921C85.8607 266.258 86.3239 266.831 86.5934 267.639C87.0314 266.932 87.604 266.384 88.3115 265.997C89.0357 265.61 89.8274 265.416 90.6864 265.416C91.3433 265.416 91.9329 265.492 92.455 265.643C92.994 265.778 93.4488 265.997 93.8193 266.3C94.2067 266.603 94.5015 266.999 94.7036 267.488C94.9226 267.959 95.0321 268.532 95.0321 269.206V278.781H92.8845V270.216C92.8845 269.812 92.8508 269.433 92.7835 269.079C92.7161 268.726 92.5898 268.422 92.4045 268.17C92.2192 267.9 91.9581 267.69 91.6212 267.538C91.3012 267.387 90.8801 267.311 90.358 267.311C89.2968 267.311 88.4631 267.614 87.8567 268.22C87.2503 268.827 86.9471 269.635 86.9471 270.646V278.781H84.7996V270.216C84.7996 269.795 84.7575 269.408 84.6732 269.054C84.6059 268.7 84.4795 268.397 84.2943 268.144C84.109 267.875 83.8563 267.673 83.5363 267.538C83.2331 267.387 82.8373 267.311 82.3488 267.311C81.7256 267.311 81.1866 267.437 80.7318 267.69C80.2939 267.942 79.9318 268.246 79.6454 268.599C79.3759 268.953 79.1738 269.324 79.0391 269.711C78.9211 270.082 78.8622 270.393 78.8622 270.646V278.781H76.7146V265.719ZM98.2544 265.719H100.276V267.639H100.326C101.303 266.157 102.71 265.416 104.546 265.416C105.354 265.416 106.087 265.584 106.744 265.921C107.4 266.258 107.864 266.831 108.133 267.639C108.571 266.932 109.144 266.384 109.851 265.997C110.576 265.61 111.367 265.416 112.226 265.416C112.883 265.416 113.473 265.492 113.995 265.643C114.534 265.778 114.989 265.997 115.359 266.3C115.747 266.603 116.041 266.999 116.243 267.488C116.462 267.959 116.572 268.532 116.572 269.206V278.781H114.424V270.216C114.424 269.812 114.391 269.433 114.323 269.079C114.256 268.726 114.13 268.422 113.944 268.17C113.759 267.9 113.498 267.69 113.161 267.538C112.841 267.387 112.42 267.311 111.898 267.311C110.837 267.311 110.003 267.614 109.396 268.22C108.79 268.827 108.487 269.635 108.487 270.646V278.781H106.339V270.216C106.339 269.795 106.297 269.408 106.213 269.054C106.146 268.7 106.019 268.397 105.834 268.144C105.649 267.875 105.396 267.673 105.076 267.538C104.773 267.387 104.377 267.311 103.889 267.311C103.265 267.311 102.726 267.437 102.272 267.69C101.834 267.942 101.472 268.246 101.185 268.599C100.916 268.953 100.714 269.324 100.579 269.711C100.461 270.082 100.402 270.393 100.402 270.646V278.781H98.2544V265.719ZM130.608 278.781H128.587V276.709H128.536C128.081 277.518 127.5 278.116 126.793 278.503C126.085 278.874 125.252 279.059 124.291 279.059C123.432 279.059 122.717 278.95 122.144 278.731C121.571 278.495 121.108 278.166 120.754 277.745C120.401 277.324 120.148 276.827 119.996 276.255C119.862 275.665 119.794 275.017 119.794 274.309V265.719H121.942V274.562C121.942 275.37 122.178 276.01 122.649 276.482C123.121 276.954 123.769 277.19 124.595 277.19C125.252 277.19 125.816 277.088 126.287 276.886C126.776 276.684 127.18 276.398 127.5 276.027C127.82 275.657 128.056 275.227 128.208 274.739C128.376 274.233 128.46 273.686 128.46 273.097V265.719H130.608V278.781ZM133.833 265.719H135.855V267.791H135.905C136.798 266.207 138.213 265.416 140.15 265.416C141.009 265.416 141.725 265.534 142.297 265.77C142.87 266.005 143.333 266.334 143.687 266.755C144.041 267.176 144.285 267.681 144.42 268.271C144.571 268.844 144.647 269.484 144.647 270.191V278.781H142.499V269.938C142.499 269.13 142.264 268.49 141.792 268.018C141.32 267.547 140.672 267.311 139.846 267.311C139.19 267.311 138.617 267.412 138.128 267.614C137.657 267.816 137.261 268.102 136.941 268.473C136.621 268.844 136.377 269.281 136.208 269.787C136.057 270.275 135.981 270.814 135.981 271.404V278.781H133.833V265.719ZM150.146 263.369H147.999V260.742H150.146V263.369ZM147.999 265.719H150.146V278.781H147.999V265.719ZM162.341 269.913C162.173 269.088 161.819 268.448 161.28 267.993C160.741 267.538 160.017 267.311 159.107 267.311C158.333 267.311 157.684 267.454 157.162 267.74C156.64 268.027 156.219 268.406 155.899 268.877C155.596 269.349 155.377 269.896 155.242 270.519C155.107 271.126 155.04 271.757 155.04 272.414C155.04 273.021 155.107 273.61 155.242 274.183C155.393 274.756 155.621 275.269 155.924 275.724C156.227 276.162 156.623 276.516 157.111 276.785C157.6 277.055 158.181 277.19 158.855 277.19C159.916 277.19 160.741 276.912 161.331 276.356C161.937 275.8 162.308 275.017 162.442 274.006H164.641C164.405 275.623 163.798 276.869 162.821 277.745C161.861 278.621 160.548 279.059 158.88 279.059C157.886 279.059 157.002 278.899 156.227 278.579C155.469 278.259 154.829 277.804 154.307 277.215C153.802 276.625 153.414 275.926 153.145 275.118C152.892 274.292 152.766 273.391 152.766 272.414C152.766 271.437 152.892 270.528 153.145 269.686C153.397 268.827 153.776 268.086 154.282 267.462C154.804 266.822 155.452 266.325 156.227 265.972C157.002 265.601 157.903 265.416 158.931 265.416C159.672 265.416 160.362 265.508 161.002 265.694C161.659 265.862 162.232 266.132 162.72 266.502C163.226 266.873 163.638 267.344 163.958 267.917C164.278 268.473 164.481 269.138 164.565 269.913H162.341ZM178.615 278.731C178.245 278.95 177.731 279.059 177.074 279.059C176.518 279.059 176.072 278.908 175.735 278.604C175.415 278.284 175.255 277.771 175.255 277.063C174.665 277.771 173.975 278.284 173.183 278.604C172.408 278.908 171.566 279.059 170.656 279.059C170.067 279.059 169.503 278.992 168.964 278.857C168.442 278.722 167.987 278.512 167.599 278.225C167.212 277.939 166.9 277.569 166.665 277.114C166.446 276.642 166.336 276.078 166.336 275.421C166.336 274.68 166.462 274.073 166.715 273.602C166.968 273.13 167.296 272.751 167.7 272.465C168.122 272.162 168.593 271.934 169.115 271.783C169.654 271.631 170.202 271.505 170.758 271.404C171.347 271.286 171.903 271.202 172.425 271.151C172.964 271.084 173.436 270.999 173.84 270.898C174.244 270.781 174.564 270.621 174.8 270.418C175.036 270.199 175.154 269.888 175.154 269.484C175.154 269.012 175.061 268.633 174.876 268.347C174.707 268.06 174.48 267.841 174.194 267.69C173.924 267.538 173.613 267.437 173.259 267.387C172.922 267.336 172.585 267.311 172.248 267.311C171.339 267.311 170.581 267.488 169.974 267.841C169.368 268.178 169.039 268.827 168.989 269.787H166.841C166.875 268.978 167.044 268.296 167.347 267.74C167.65 267.184 168.054 266.738 168.559 266.401C169.065 266.047 169.637 265.795 170.277 265.643C170.934 265.492 171.633 265.416 172.375 265.416C172.964 265.416 173.545 265.458 174.118 265.542C174.707 265.626 175.238 265.803 175.71 266.073C176.181 266.325 176.56 266.688 176.847 267.159C177.133 267.631 177.276 268.246 177.276 269.004V275.724C177.276 276.229 177.301 276.6 177.352 276.836C177.419 277.072 177.621 277.19 177.958 277.19C178.143 277.19 178.362 277.147 178.615 277.063V278.731ZM175.128 272.035C174.859 272.238 174.505 272.389 174.067 272.49C173.629 272.574 173.166 272.65 172.678 272.718C172.206 272.768 171.726 272.835 171.238 272.92C170.749 272.987 170.311 273.105 169.924 273.273C169.536 273.442 169.216 273.686 168.964 274.006C168.728 274.309 168.61 274.73 168.61 275.269C168.61 275.623 168.677 275.926 168.812 276.179C168.964 276.415 169.149 276.608 169.368 276.76C169.604 276.912 169.873 277.021 170.176 277.088C170.48 277.156 170.8 277.19 171.137 277.19C171.844 277.19 172.45 277.097 172.956 276.912C173.461 276.709 173.874 276.465 174.194 276.179C174.514 275.876 174.749 275.556 174.901 275.219C175.053 274.865 175.128 274.537 175.128 274.233V272.035ZM183.595 265.719H186.197V267.614H183.595V275.724C183.595 275.977 183.612 276.179 183.646 276.331C183.696 276.482 183.78 276.6 183.898 276.684C184.016 276.768 184.176 276.827 184.378 276.861C184.597 276.878 184.875 276.886 185.212 276.886H186.197V278.781H184.555C183.999 278.781 183.519 278.748 183.115 278.68C182.728 278.596 182.408 278.453 182.155 278.251C181.919 278.049 181.742 277.762 181.624 277.392C181.507 277.021 181.448 276.533 181.448 275.926V267.614H179.224V265.719H181.448V261.803H183.595V265.719ZM190.857 263.369H188.71V260.742H190.857V263.369ZM188.71 265.719H190.857V278.781H188.71V265.719ZM195.751 272.263C195.751 273.054 195.852 273.762 196.054 274.385C196.273 274.991 196.568 275.505 196.938 275.926C197.309 276.331 197.738 276.642 198.227 276.861C198.732 277.08 199.262 277.19 199.818 277.19C200.374 277.19 200.896 277.08 201.385 276.861C201.89 276.642 202.328 276.331 202.699 275.926C203.069 275.505 203.355 274.991 203.558 274.385C203.777 273.762 203.886 273.054 203.886 272.263C203.886 271.471 203.777 270.772 203.558 270.166C203.355 269.543 203.069 269.02 202.699 268.599C202.328 268.178 201.89 267.858 201.385 267.639C200.896 267.42 200.374 267.311 199.818 267.311C199.262 267.311 198.732 267.42 198.227 267.639C197.738 267.858 197.309 268.178 196.938 268.599C196.568 269.02 196.273 269.543 196.054 270.166C195.852 270.772 195.751 271.471 195.751 272.263ZM193.477 272.263C193.477 271.303 193.611 270.41 193.881 269.585C194.15 268.742 194.555 268.018 195.094 267.412C195.633 266.789 196.298 266.3 197.09 265.946C197.881 265.593 198.791 265.416 199.818 265.416C200.863 265.416 201.772 265.593 202.547 265.946C203.339 266.3 204.004 266.789 204.543 267.412C205.082 268.018 205.486 268.742 205.756 269.585C206.025 270.41 206.16 271.303 206.16 272.263C206.16 273.223 206.025 274.116 205.756 274.941C205.486 275.766 205.082 276.491 204.543 277.114C204.004 277.72 203.339 278.2 202.547 278.554C201.772 278.891 200.863 279.059 199.818 279.059C198.791 279.059 197.881 278.891 197.09 278.554C196.298 278.2 195.633 277.72 195.094 277.114C194.555 276.491 194.15 275.766 193.881 274.941C193.611 274.116 193.477 273.223 193.477 272.263ZM208.692 265.719H210.713V267.791H210.764C211.656 266.207 213.071 265.416 215.008 265.416C215.867 265.416 216.583 265.534 217.156 265.77C217.729 266.005 218.192 266.334 218.546 266.755C218.899 267.176 219.143 267.681 219.278 268.271C219.43 268.844 219.506 269.484 219.506 270.191V278.781H217.358V269.938C217.358 269.13 217.122 268.49 216.651 268.018C216.179 267.547 215.531 267.311 214.705 267.311C214.048 267.311 213.476 267.412 212.987 267.614C212.516 267.816 212.12 268.102 211.8 268.473C211.48 268.844 211.235 269.281 211.067 269.787C210.915 270.275 210.84 270.814 210.84 271.404V278.781H208.692V265.719ZM232.037 263.369H229.889V260.742H232.037V263.369ZM229.889 265.719H232.037V278.781H229.889V265.719ZM236.678 274.663C236.694 275.135 236.804 275.539 237.006 275.876C237.208 276.196 237.469 276.457 237.789 276.659C238.126 276.844 238.497 276.979 238.901 277.063C239.322 277.147 239.752 277.19 240.19 277.19C240.526 277.19 240.88 277.164 241.251 277.114C241.621 277.063 241.958 276.971 242.261 276.836C242.581 276.701 242.842 276.507 243.045 276.255C243.247 275.985 243.348 275.648 243.348 275.244C243.348 274.688 243.137 274.267 242.716 273.981C242.295 273.694 241.764 273.467 241.124 273.299C240.501 273.113 239.819 272.953 239.078 272.819C238.337 272.667 237.646 272.465 237.006 272.212C236.383 271.943 235.861 271.572 235.44 271.101C235.019 270.629 234.808 269.972 234.808 269.13C234.808 268.473 234.951 267.909 235.238 267.437C235.541 266.965 235.92 266.586 236.374 266.3C236.846 265.997 237.368 265.778 237.941 265.643C238.53 265.492 239.112 265.416 239.684 265.416C240.425 265.416 241.108 265.483 241.731 265.618C242.354 265.736 242.901 265.955 243.373 266.275C243.861 266.578 244.249 266.999 244.535 267.538C244.822 268.06 244.99 268.717 245.04 269.509H242.893C242.859 269.088 242.75 268.742 242.564 268.473C242.379 268.187 242.143 267.959 241.857 267.791C241.571 267.622 241.251 267.504 240.897 267.437C240.56 267.353 240.215 267.311 239.861 267.311C239.541 267.311 239.213 267.336 238.876 267.387C238.556 267.437 238.261 267.53 237.991 267.664C237.722 267.782 237.503 267.951 237.335 268.17C237.166 268.372 237.082 268.641 237.082 268.978C237.082 269.349 237.208 269.66 237.461 269.913C237.73 270.149 238.067 270.351 238.471 270.519C238.876 270.671 239.331 270.806 239.836 270.924C240.341 271.025 240.846 271.134 241.352 271.252C241.891 271.37 242.413 271.513 242.918 271.682C243.44 271.85 243.895 272.077 244.283 272.364C244.687 272.633 245.007 272.979 245.243 273.4C245.495 273.821 245.622 274.343 245.622 274.966C245.622 275.758 245.453 276.415 245.116 276.937C244.796 277.459 244.367 277.88 243.828 278.2C243.306 278.52 242.708 278.739 242.034 278.857C241.377 278.992 240.72 279.059 240.063 279.059C239.339 279.059 238.648 278.983 237.991 278.832C237.335 278.68 236.753 278.436 236.248 278.099C235.743 277.745 235.339 277.291 235.035 276.735C234.732 276.162 234.564 275.471 234.53 274.663H236.678ZM44.8575 292.614H42.6594V290.719H44.8575V288.774C44.8575 287.712 45.1607 286.912 45.767 286.373C46.3902 285.818 47.2914 285.54 48.4704 285.54C48.6726 285.54 48.9 285.556 49.1526 285.59C49.4221 285.624 49.6579 285.674 49.86 285.742V287.611C49.6748 287.544 49.4726 287.502 49.2537 287.485C49.0347 287.451 48.8326 287.435 48.6473 287.435C48.1251 287.435 47.7209 287.536 47.4346 287.738C47.1482 287.94 47.005 288.327 47.005 288.9V290.719H49.5316V292.614H47.005V303.781H44.8575V292.614ZM62.2628 303.781H60.2416V301.709H60.191C59.7363 302.518 59.1552 303.116 58.4477 303.503C57.7403 303.874 56.9065 304.059 55.9464 304.059C55.0874 304.059 54.3716 303.95 53.7989 303.731C53.2262 303.495 52.763 303.166 52.4093 302.745C52.0556 302.324 51.8029 301.827 51.6513 301.255C51.5166 300.665 51.4492 300.017 51.4492 299.309V290.719H53.5968V299.562C53.5968 300.37 53.8326 301.01 54.3042 301.482C54.7758 301.954 55.4243 302.19 56.2496 302.19C56.9065 302.19 57.4708 302.088 57.9424 301.886C58.4309 301.684 58.8351 301.398 59.1552 301.027C59.4752 300.657 59.711 300.227 59.8626 299.739C60.031 299.233 60.1152 298.686 60.1152 298.097V290.719H62.2628V303.781ZM65.4883 290.719H67.5095V292.791H67.5601C68.4528 291.207 69.8676 290.416 71.8047 290.416C72.6637 290.416 73.3795 290.534 73.9522 290.77C74.5249 291.005 74.9881 291.334 75.3418 291.755C75.6955 292.176 75.9398 292.681 76.0745 293.271C76.2261 293.844 76.3019 294.484 76.3019 295.191V303.781H74.1543V294.938C74.1543 294.13 73.9185 293.49 73.4469 293.018C72.9753 292.547 72.3268 292.311 71.5015 292.311C70.8446 292.311 70.2719 292.412 69.7834 292.614C69.3118 292.816 68.916 293.102 68.5959 293.473C68.2759 293.844 68.0317 294.281 67.8632 294.787C67.7116 295.275 67.6359 295.814 67.6359 296.404V303.781H65.4883V290.719ZM81.0938 297.364C81.0938 297.97 81.1696 298.568 81.3212 299.158C81.4897 299.73 81.7339 300.244 82.0539 300.699C82.3908 301.154 82.8119 301.516 83.3172 301.785C83.8394 302.055 84.4457 302.19 85.1363 302.19C85.8606 302.19 86.4754 302.046 86.9807 301.76C87.486 301.474 87.8987 301.103 88.2187 300.648C88.5387 300.177 88.7661 299.646 88.9009 299.057C89.0525 298.467 89.1283 297.869 89.1283 297.263C89.1283 296.623 89.0525 296.008 88.9009 295.418C88.7493 294.812 88.505 294.281 88.1682 293.827C87.8481 293.372 87.427 293.01 86.9049 292.74C86.3827 292.454 85.7511 292.311 85.01 292.311C84.2857 292.311 83.6709 292.454 83.1656 292.74C82.6603 293.027 82.2561 293.406 81.9529 293.877C81.6497 294.349 81.4307 294.888 81.296 295.494C81.1612 296.101 81.0938 296.724 81.0938 297.364ZM91.2 303.781H89.0525V302.013H89.0019C88.6482 302.737 88.0924 303.259 87.3344 303.579C86.5764 303.899 85.7427 304.059 84.8331 304.059C83.8225 304.059 82.9382 303.874 82.1803 303.503C81.4391 303.133 80.8159 302.636 80.3106 302.013C79.8222 301.389 79.4516 300.665 79.1989 299.84C78.9463 299.015 78.82 298.139 78.82 297.212C78.82 296.286 78.9379 295.41 79.1737 294.585C79.4263 293.759 79.7969 293.043 80.2854 292.437C80.7907 291.814 81.4139 291.325 82.155 290.972C82.913 290.601 83.7888 290.416 84.7826 290.416C85.1195 290.416 85.4816 290.45 85.869 290.517C86.2564 290.584 86.6438 290.702 87.0312 290.871C87.4186 291.022 87.7808 291.233 88.1176 291.502C88.4714 291.755 88.7661 292.075 89.0019 292.462H89.0525V285.742H91.2V303.781ZM106.076 303.731C105.705 303.95 105.191 304.059 104.534 304.059C103.979 304.059 103.532 303.908 103.195 303.604C102.875 303.284 102.715 302.771 102.715 302.063C102.126 302.771 101.435 303.284 100.644 303.604C99.8688 303.908 99.0266 304.059 98.117 304.059C97.5275 304.059 96.9632 303.992 96.4242 303.857C95.9021 303.722 95.4473 303.512 95.0599 303.225C94.6725 302.939 94.3609 302.569 94.1251 302.114C93.9061 301.642 93.7966 301.078 93.7966 300.421C93.7966 299.68 93.923 299.073 94.1756 298.602C94.4283 298.13 94.7567 297.751 95.161 297.465C95.5821 297.162 96.0537 296.934 96.5758 296.783C97.1148 296.631 97.6622 296.505 98.2181 296.404C98.8076 296.286 99.3635 296.202 99.8856 296.151C100.425 296.084 100.896 295.999 101.3 295.898C101.705 295.781 102.025 295.621 102.261 295.418C102.496 295.199 102.614 294.888 102.614 294.484C102.614 294.012 102.522 293.633 102.336 293.347C102.168 293.06 101.941 292.841 101.654 292.69C101.385 292.538 101.073 292.437 100.719 292.387C100.382 292.336 100.046 292.311 99.7088 292.311C98.7992 292.311 98.0412 292.488 97.4349 292.841C96.8285 293.178 96.5 293.827 96.4495 294.787H94.3019C94.3356 293.978 94.5041 293.296 94.8073 292.74C95.1104 292.184 95.5147 291.738 96.02 291.401C96.5253 291.047 97.098 290.795 97.738 290.643C98.3949 290.492 99.094 290.416 99.8351 290.416C100.425 290.416 101.006 290.458 101.578 290.542C102.168 290.626 102.698 290.803 103.17 291.073C103.642 291.325 104.021 291.688 104.307 292.159C104.593 292.631 104.737 293.246 104.737 294.004V300.724C104.737 301.229 104.762 301.6 104.812 301.836C104.88 302.072 105.082 302.19 105.419 302.19C105.604 302.19 105.823 302.147 106.076 302.063V303.731ZM102.589 297.035C102.32 297.238 101.966 297.389 101.528 297.49C101.09 297.574 100.627 297.65 100.138 297.718C99.6666 297.768 99.1866 297.835 98.6981 297.92C98.2097 297.987 97.7717 298.105 97.3843 298.273C96.9969 298.442 96.6769 298.686 96.4242 299.006C96.1884 299.309 96.0705 299.73 96.0705 300.269C96.0705 300.623 96.1379 300.926 96.2727 301.179C96.4242 301.415 96.6095 301.608 96.8285 301.76C97.0643 301.912 97.3338 302.021 97.637 302.088C97.9402 302.156 98.2602 302.19 98.5971 302.19C99.3045 302.19 99.9109 302.097 100.416 301.912C100.921 301.709 101.334 301.465 101.654 301.179C101.974 300.876 102.21 300.556 102.362 300.219C102.513 299.865 102.589 299.537 102.589 299.233V297.035ZM108.074 290.719H110.096V292.639H110.146C111.123 291.157 112.53 290.416 114.365 290.416C115.174 290.416 115.907 290.584 116.564 290.921C117.22 291.258 117.684 291.831 117.953 292.639C118.391 291.932 118.964 291.384 119.671 290.997C120.395 290.61 121.187 290.416 122.046 290.416C122.703 290.416 123.293 290.492 123.815 290.643C124.354 290.778 124.809 290.997 125.179 291.3C125.566 291.603 125.861 291.999 126.063 292.488C126.282 292.959 126.392 293.532 126.392 294.206V303.781H124.244V295.216C124.244 294.812 124.211 294.433 124.143 294.079C124.076 293.726 123.949 293.422 123.764 293.17C123.579 292.9 123.318 292.69 122.981 292.538C122.661 292.387 122.24 292.311 121.718 292.311C120.657 292.311 119.823 292.614 119.216 293.22C118.61 293.827 118.307 294.635 118.307 295.646V303.781H116.159V295.216C116.159 294.795 116.117 294.408 116.033 294.054C115.966 293.7 115.839 293.397 115.654 293.144C115.469 292.875 115.216 292.673 114.896 292.538C114.593 292.387 114.197 292.311 113.709 292.311C113.085 292.311 112.546 292.437 112.092 292.69C111.654 292.942 111.292 293.246 111.005 293.599C110.736 293.953 110.534 294.324 110.399 294.711C110.281 295.082 110.222 295.393 110.222 295.646V303.781H108.074V290.719ZM138.684 295.999C138.651 295.494 138.533 295.014 138.331 294.559C138.145 294.105 137.884 293.717 137.547 293.397C137.227 293.06 136.84 292.799 136.385 292.614C135.947 292.412 135.459 292.311 134.92 292.311C134.364 292.311 133.859 292.412 133.404 292.614C132.966 292.799 132.587 293.06 132.267 293.397C131.947 293.734 131.694 294.13 131.509 294.585C131.324 295.023 131.214 295.494 131.181 295.999H138.684ZM140.756 299.638C140.47 301.103 139.838 302.206 138.861 302.947C137.884 303.689 136.655 304.059 135.173 304.059C134.128 304.059 133.219 303.891 132.444 303.554C131.686 303.217 131.046 302.745 130.524 302.139C130.002 301.533 129.606 300.808 129.336 299.966C129.084 299.124 128.94 298.206 128.907 297.212C128.907 296.218 129.058 295.309 129.361 294.484C129.665 293.658 130.086 292.942 130.625 292.336C131.181 291.73 131.829 291.258 132.57 290.921C133.328 290.584 134.154 290.416 135.046 290.416C136.208 290.416 137.169 290.66 137.926 291.149C138.701 291.62 139.316 292.227 139.771 292.968C140.242 293.709 140.563 294.517 140.731 295.393C140.916 296.269 140.992 297.103 140.958 297.894H131.181C131.164 298.467 131.231 299.015 131.383 299.537C131.534 300.042 131.779 300.497 132.115 300.901C132.452 301.288 132.882 301.6 133.404 301.836C133.926 302.072 134.541 302.19 135.248 302.19C136.158 302.19 136.899 301.979 137.472 301.558C138.061 301.137 138.449 300.497 138.634 299.638H140.756ZM143.184 290.719H145.206V292.791H145.256C146.149 291.207 147.564 290.416 149.501 290.416C150.36 290.416 151.076 290.534 151.648 290.77C152.221 291.005 152.684 291.334 153.038 291.755C153.392 292.176 153.636 292.681 153.771 293.271C153.922 293.844 153.998 294.484 153.998 295.191V303.781H151.851V294.938C151.851 294.13 151.615 293.49 151.143 293.018C150.671 292.547 150.023 292.311 149.198 292.311C148.541 292.311 147.968 292.412 147.48 292.614C147.008 292.816 146.612 293.102 146.292 293.473C145.972 293.844 145.728 294.281 145.559 294.787C145.408 295.275 145.332 295.814 145.332 296.404V303.781H143.184V290.719ZM160.205 290.719H162.807V292.614H160.205V300.724C160.205 300.977 160.222 301.179 160.255 301.331C160.306 301.482 160.39 301.6 160.508 301.684C160.626 301.768 160.786 301.827 160.988 301.861C161.207 301.878 161.485 301.886 161.822 301.886H162.807V303.781H161.165C160.609 303.781 160.129 303.748 159.725 303.68C159.337 303.596 159.017 303.453 158.765 303.251C158.529 303.049 158.352 302.762 158.234 302.392C158.116 302.021 158.057 301.533 158.057 300.926V292.614H155.834V290.719H158.057V286.803H160.205V290.719ZM176.765 303.731C176.394 303.95 175.88 304.059 175.223 304.059C174.668 304.059 174.221 303.908 173.884 303.604C173.564 303.284 173.404 302.771 173.404 302.063C172.815 302.771 172.124 303.284 171.333 303.604C170.558 303.908 169.716 304.059 168.806 304.059C168.216 304.059 167.652 303.992 167.113 303.857C166.591 303.722 166.136 303.512 165.749 303.225C165.361 302.939 165.05 302.569 164.814 302.114C164.595 301.642 164.486 301.078 164.486 300.421C164.486 299.68 164.612 299.073 164.865 298.602C165.117 298.13 165.446 297.751 165.85 297.465C166.271 297.162 166.743 296.934 167.265 296.783C167.804 296.631 168.351 296.505 168.907 296.404C169.497 296.286 170.052 296.202 170.575 296.151C171.114 296.084 171.585 295.999 171.989 295.898C172.394 295.781 172.714 295.621 172.95 295.418C173.185 295.199 173.303 294.888 173.303 294.484C173.303 294.012 173.211 293.633 173.025 293.347C172.857 293.06 172.629 292.841 172.343 292.69C172.074 292.538 171.762 292.437 171.408 292.387C171.071 292.336 170.735 292.311 170.398 292.311C169.488 292.311 168.73 292.488 168.124 292.841C167.517 293.178 167.189 293.827 167.138 294.787H164.991C165.025 293.978 165.193 293.296 165.496 292.74C165.799 292.184 166.204 291.738 166.709 291.401C167.214 291.047 167.787 290.795 168.427 290.643C169.084 290.492 169.783 290.416 170.524 290.416C171.114 290.416 171.695 290.458 172.267 290.542C172.857 290.626 173.387 290.803 173.859 291.073C174.331 291.325 174.71 291.688 174.996 292.159C175.282 292.631 175.426 293.246 175.426 294.004V300.724C175.426 301.229 175.451 301.6 175.501 301.836C175.569 302.072 175.771 302.19 176.108 302.19C176.293 302.19 176.512 302.147 176.765 302.063V303.731ZM173.278 297.035C173.008 297.238 172.655 297.389 172.217 297.49C171.779 297.574 171.316 297.65 170.827 297.718C170.356 297.768 169.876 297.835 169.387 297.92C168.899 297.987 168.461 298.105 168.073 298.273C167.686 298.442 167.366 298.686 167.113 299.006C166.877 299.309 166.759 299.73 166.759 300.269C166.759 300.623 166.827 300.926 166.962 301.179C167.113 301.415 167.298 301.608 167.517 301.76C167.753 301.912 168.023 302.021 168.326 302.088C168.629 302.156 168.949 302.19 169.286 302.19C169.993 302.19 170.6 302.097 171.105 301.912C171.61 301.709 172.023 301.465 172.343 301.179C172.663 300.876 172.899 300.556 173.051 300.219C173.202 299.865 173.278 299.537 173.278 299.233V297.035ZM178.89 285.742H181.037V303.781H178.89V285.742Z" fill="#0D0D0C"/>
<defs>
<clipPath id="clip0_1165_12957">
<rect width="141.138" height="39.205" fill="white" transform="translate(112.319 66)"/>
</clipPath>
</defs>
</svg>
