<svg width="390" height="844" viewBox="0 0 390 844" fill="none" xmlns="http://www.w3.org/2000/svg">
<g clip-path="url(#clip0_1163_12891)">
<path d="M112.249 199V160.6H138.265V169.288H149.017V199H112.249ZM133.321 186.136L133.225 173.56H132.889C129.145 173.56 127.177 176.632 127.177 179.704C127.177 182.92 129.193 186.136 133.321 186.136ZM147.812 199L158.084 160.6H188.276V199H172.916V189.544H166.292L163.748 199H147.812ZM170.852 179.32C172.964 179.32 174.692 177.592 174.692 175.48C174.692 173.32 172.964 171.592 170.852 171.592C168.74 171.592 166.964 173.32 166.964 175.48C166.964 177.592 168.74 179.32 170.852 179.32ZM247.322 160.6V199H232.106V183.736C232.106 182.008 230.186 181.912 229.802 183.352L225.626 199H209.546V183.736C209.546 181.96 207.626 181.864 207.242 183.352L203.066 199H187.562L197.834 160.6H219.338V175.864C219.338 177.592 221.258 177.688 221.642 176.248L225.818 160.6H247.322ZM249.265 199V160.6H278.881V173.56H265.921C264.529 173.56 263.521 174.616 263.521 176.104C263.521 177.592 264.529 178.648 265.921 178.648H270.241V186.04H278.881V199H249.265ZM141.151 247.768C129.679 247.768 120.511 238.792 120.511 227.752C120.511 216.808 129.679 207.832 141.151 207.832C152.383 207.832 161.695 216.808 161.695 227.752C161.695 238.792 152.383 247.768 141.151 247.768ZM141.103 233.32C144.031 233.32 146.527 230.872 146.527 227.8C146.527 224.776 144.031 222.28 141.103 222.28C138.079 222.28 135.535 224.776 135.535 227.8C135.535 230.872 138.079 233.32 141.103 233.32ZM163.132 247V208.6H178.588V231.064C178.588 233.032 180.892 233.176 181.372 231.448L187.516 208.6H203.452L193.18 247H163.132ZM202.741 247V208.6H232.357V221.56H219.397C218.005 221.56 216.997 222.616 216.997 224.104C216.997 225.592 218.005 226.648 219.397 226.648H223.717V234.04H232.357V247H202.741ZM234.148 247V208.6H253.348C262.18 208.6 269.236 215.08 269.236 223.048C269.236 226.072 268.276 228.808 266.596 231.112H270.1V247H254.884V237.544H249.364V247H234.148ZM251.332 227.32C253.444 227.32 255.172 225.592 255.172 223.48C255.172 221.32 253.444 219.592 251.332 219.592C249.22 219.592 247.444 221.32 247.444 223.48C247.444 225.592 249.22 227.32 251.332 227.32Z" fill="#22717F"/>
</g>
<defs>
<clipPath id="clip0_1163_12891">
<rect width="390" height="761" fill="white" transform="translate(0 47)"/>
</clipPath>
</defs>
</svg>
